<svg width="144" height="90" viewBox="0 0 144 90" fill="none" xmlns="http://www.w3.org/2000/svg">
<mask id="path-1-inside-1" fill="white">
<path fill-rule="evenodd" clip-rule="evenodd" d="M14.4209 0L68.2956 13.8293C68.0249 19.1342 71.5085 24.0734 76.8526 25.4452C82.1968 26.8171 87.6287 24.1663 89.9464 19.387L143.821 33.2163L129.4 89.395L75.378 75.5277C75.3373 70.4817 71.9254 65.8949 66.8067 64.5809C61.688 63.267 56.4888 65.6434 54.0226 70.0459L0.00016126 56.1787L14.4209 0Z"/>
</mask>
<path fill-rule="evenodd" clip-rule="evenodd" d="M14.4209 0L68.2956 13.8293C68.0249 19.1342 71.5085 24.0734 76.8526 25.4452C82.1968 26.8171 87.6287 24.1663 89.9464 19.387L143.821 33.2163L129.4 89.395L75.378 75.5277C75.3373 70.4817 71.9254 65.8949 66.8067 64.5809C61.688 63.267 56.4888 65.6434 54.0226 70.0459L0.00016126 56.1787L14.4209 0Z" fill="#FFDD27"/>
<path d="M68.2956 13.8293L69.2943 13.8803L69.336 13.064L68.5443 12.8607L68.2956 13.8293ZM14.4209 0L14.6695 -0.968598L13.7009 -1.21723L13.4523 -0.248633L14.4209 0ZM89.9464 19.387L90.1951 18.4184L89.4033 18.2151L89.0467 18.9506L89.9464 19.387ZM143.821 33.2163L144.79 33.4649L145.038 32.4963L144.07 32.2477L143.821 33.2163ZM129.4 89.395L129.152 90.3636L130.12 90.6122L130.369 89.6436L129.4 89.395ZM75.378 75.5277L74.3781 75.5358L74.3843 76.3051L75.1294 76.4963L75.378 75.5277ZM54.0226 70.0459L53.7739 71.0145L54.5191 71.2058L54.895 70.5346L54.0226 70.0459ZM0.00016126 56.1787L-0.968436 55.93L-1.21707 56.8986L-0.248472 57.1473L0.00016126 56.1787ZM68.5443 12.8607L14.6695 -0.968598L14.1723 0.968598L68.047 14.7979L68.5443 12.8607ZM77.1013 24.4766C72.2268 23.2254 69.0473 18.7196 69.2943 13.8803L67.2969 13.7784C67.0024 19.5488 70.7901 24.9215 76.604 26.4138L77.1013 24.4766ZM89.0467 18.9506C86.9323 23.3105 81.9757 25.7279 77.1013 24.4766L76.604 26.4138C82.4179 27.9062 88.325 25.0222 90.8462 19.8233L89.0467 18.9506ZM144.07 32.2477L90.1951 18.4184L89.6978 20.3556L143.573 34.1849L144.07 32.2477ZM130.369 89.6436L144.79 33.4649L142.853 32.9677L128.432 89.1463L130.369 89.6436ZM75.1294 76.4963L129.152 90.3636L129.649 88.4264L75.6267 74.5591L75.1294 76.4963ZM66.5581 65.5495C71.2266 66.7479 74.3409 70.9319 74.3781 75.5358L76.378 75.5196C76.3336 70.0315 72.6242 65.0419 67.0553 63.6124L66.5581 65.5495ZM54.895 70.5346C57.1451 66.5179 61.8896 64.3512 66.5581 65.5495L67.0553 63.6124C61.4865 62.1828 55.8324 64.7689 53.1501 69.5572L54.895 70.5346ZM-0.248472 57.1473L53.7739 71.0145L54.2712 69.0773L0.248795 55.2101L-0.248472 57.1473ZM13.4523 -0.248633L-0.968436 55.93L0.968759 56.4273L15.3895 0.248633L13.4523 -0.248633Z" fill="#7A7A7A" mask="url(#path-1-inside-1)"/>
<path d="M32.2592 42.8134C32.2227 42.1295 32.1075 41.3772 31.9135 40.5565C31.7421 39.7224 31.5186 38.9038 31.243 38.1007C30.972 37.2795 30.6599 36.5056 30.3068 35.779C29.9765 35.039 29.6387 34.403 29.2934 33.8711L27.3232 41.5463L23.9874 40.69L28.2967 23.9023L31.6325 24.7586L29.8434 31.7286C30.3711 31.3245 30.9308 30.8707 31.5225 30.3674C32.1143 29.864 32.6789 29.3537 33.2164 28.8364C33.7719 28.3238 34.289 27.8109 34.7676 27.2978C35.2463 26.7847 35.6567 26.3119 35.999 25.8794L39.7688 26.8471C39.3903 27.2703 38.9391 27.7519 38.415 28.2919C37.9137 28.8184 37.3488 29.3672 36.7205 29.9383C36.0967 30.4912 35.4322 31.053 34.7269 31.6235C34.0396 32.1987 33.3322 32.7398 32.6046 33.2468C33.0259 33.9331 33.4353 34.7031 33.8328 35.5567C34.2304 36.4104 34.5779 37.309 34.8753 38.2526C35.1954 39.1827 35.4543 40.1261 35.6521 41.0826C35.8544 42.021 35.9801 42.9205 36.029 43.781L32.2592 42.8134ZM54.0343 30.509C53.2522 31.7536 52.5435 32.8629 51.9081 33.8368C51.2954 34.7973 50.7102 35.6878 50.1527 36.5083C49.6133 37.3334 49.0855 38.1133 48.5693 38.8481C48.0711 39.5874 47.5412 40.3379 46.9796 41.0995C46.2899 42.0595 45.6466 42.8387 45.0498 43.4371C44.471 44.0401 43.9022 44.4916 43.3435 44.7914C42.8028 45.0958 42.2561 45.2735 41.7034 45.3244C41.1508 45.3752 40.5761 45.3241 39.9795 45.1709C39.437 45.0317 38.9357 44.8452 38.4753 44.6114C38.0331 44.3822 37.5753 44.1009 37.1021 43.7674L38.5041 41.1209C38.8647 41.3676 39.1985 41.569 39.5054 41.7248C39.8123 41.8807 40.1104 41.9957 40.3996 42.07C40.9782 42.2185 41.5174 42.1449 42.0173 41.8493C42.5172 41.5536 43.0869 40.9483 43.7265 40.0332C43.0039 37.5929 42.3893 35.2574 41.8827 33.0267C41.3807 30.778 41.0105 28.804 40.7722 27.1047L44.4606 28.0515C44.6601 29.4517 44.8709 30.8452 45.0931 32.232C45.3333 33.6234 45.616 35.1125 45.941 36.6991C46.3984 35.9685 46.842 35.2537 47.272 34.5547C47.702 33.8556 48.0932 33.1948 48.4458 32.5723C48.8164 31.9544 49.1459 31.3837 49.4345 30.8603C49.723 30.337 49.9725 29.8903 50.1831 29.5204L54.0343 30.509ZM66.5369 33.7183L62.2276 50.5061L58.8918 49.6498L62.491 35.6284L58.0432 34.4866L54.444 48.508L51.1081 47.6518L55.4174 30.864L66.5369 33.7183ZM64.3124 48.3528C64.8243 48.3108 65.2618 48.2207 65.6248 48.0826C66.0106 47.9311 66.3401 47.7363 66.6132 47.498C66.891 47.2417 67.1396 46.949 67.359 46.6199C67.6011 46.2773 67.8344 45.8939 68.0589 45.4698C68.6545 44.3507 69.2273 42.9078 69.7771 41.141C70.3317 39.3562 70.9059 37.3066 71.5 34.9923L80.3414 37.2619L76.0321 54.0496L72.6962 53.1933L76.2954 39.1719L73.8546 38.5453C73.5492 39.5847 73.2279 40.6489 72.8905 41.7379C72.5532 42.8269 72.1799 43.8681 71.7707 44.8615C71.3796 45.8596 70.9368 46.7963 70.4423 47.6715C69.9525 48.5286 69.3888 49.2608 68.7511 49.868C68.1362 50.4617 67.4362 50.8988 66.6512 51.1791C65.8662 51.4593 64.9762 51.5103 63.9813 51.332L64.3124 48.3528ZM78.717 54.7388L83.0263 37.9511L93.1966 40.5617L92.4865 43.328L85.6521 41.5737L84.6844 45.3435L90.6238 46.8681L89.9137 49.6344L83.9743 48.1098L82.763 52.8288L90.194 54.7363L89.4839 57.5026L78.717 54.7388ZM107.218 44.1609L102.909 60.9487L99.5729 60.0924L101.473 52.6884L97.0256 51.5467L95.1251 58.9507L91.7892 58.0944L96.0985 41.3066L99.4344 42.1629L97.7357 48.7804L102.184 49.9221L103.882 43.3046L107.218 44.1609ZM110.41 53.9127C110.201 54.7263 110.031 55.5017 109.899 56.2389C109.791 56.9626 109.759 57.6098 109.806 58.1805C109.87 58.7559 110.034 59.2414 110.299 59.6369C110.564 60.0325 110.985 60.3045 111.564 60.453C112.124 60.5969 112.616 60.5593 113.038 60.3401C113.479 60.1255 113.857 59.7793 114.172 59.3014C114.51 58.81 114.797 58.2187 115.032 57.5275C115.285 56.8409 115.516 56.0908 115.725 55.2772C115.934 54.4636 116.093 53.6949 116.202 52.9712C116.333 52.2341 116.367 51.5778 116.302 51.0024C116.256 50.4317 116.101 49.9485 115.836 49.553C115.571 49.1574 115.15 48.8854 114.571 48.7369C113.993 48.5884 113.492 48.6237 113.07 48.8429C112.647 49.0621 112.267 49.4173 111.929 49.9087C111.613 50.3866 111.329 50.9689 111.076 51.6554C110.841 52.3467 110.618 53.0991 110.41 53.9127ZM107.02 53.0425C107.762 50.1496 108.855 48.1078 110.297 46.9171C111.745 45.7084 113.418 45.3476 115.316 45.835C117.287 46.3408 118.597 47.4674 119.247 49.2145C119.902 50.9436 119.858 53.2545 119.115 56.1474C118.373 59.0403 117.287 61.0934 115.858 62.3069C114.433 63.5022 112.762 63.8539 110.846 63.3619C108.875 62.856 107.553 61.7362 106.881 60.0025C106.231 58.2554 106.277 55.9354 107.02 53.0425Z" fill="white"/>
</svg>
