<svg width="144" height="89" viewBox="0 0 144 89" fill="none" xmlns="http://www.w3.org/2000/svg">
<mask id="path-1-inside-1" fill="white">
<path fill-rule="evenodd" clip-rule="evenodd" d="M0 32.1279L53.989 18.7518C56.2666 23.5505 61.676 26.2467 67.0315 24.9199C72.387 23.593 75.912 18.6832 75.6858 13.3763L129.675 0.000117496L143.623 56.298L89.486 69.7108C87.0569 65.2877 81.8778 62.8677 76.7482 64.1386C71.6186 65.4095 68.1684 69.9674 68.0852 75.013L13.9482 88.4258L0 32.1279Z"/>
</mask>
<path fill-rule="evenodd" clip-rule="evenodd" d="M0 32.1279L53.989 18.7518C56.2666 23.5505 61.676 26.2467 67.0315 24.9199C72.387 23.593 75.912 18.6832 75.6858 13.3763L129.675 0.000117496L143.623 56.298L89.486 69.7108C87.0569 65.2877 81.8778 62.8677 76.7482 64.1386C71.6186 65.4095 68.1684 69.9674 68.0852 75.013L13.9482 88.4258L0 32.1279Z" fill="#E76867"/>
<path d="M53.989 18.7518L54.8925 18.323L54.542 17.5846L53.7486 17.7811L53.989 18.7518ZM0 32.1279L-0.240486 31.1573L-1.21114 31.3978L-0.970653 32.3684L0 32.1279ZM75.6858 13.3763L75.4453 12.4056L74.6519 12.6022L74.6867 13.4189L75.6858 13.3763ZM129.675 0.000117496L130.645 -0.240368L130.405 -1.21102L129.434 -0.970535L129.675 0.000117496ZM143.623 56.298L143.863 57.2686L144.834 57.0281L144.594 56.0575L143.623 56.298ZM89.486 69.7108L88.6095 70.1922L88.9798 70.8664L89.7265 70.6814L89.486 69.7108ZM68.0852 75.013L68.3257 75.9836L69.0724 75.7986L69.0851 75.0295L68.0852 75.013ZM13.9482 88.4258L12.9775 88.6663L13.218 89.6369L14.1887 89.3964L13.9482 88.4258ZM53.7486 17.7811L-0.240486 31.1573L0.240486 33.0986L54.2295 19.7224L53.7486 17.7811ZM66.791 23.9492C61.9063 25.1594 56.9701 22.7005 54.8925 18.323L53.0856 19.1806C55.563 24.4004 61.4458 27.334 67.272 25.8905L66.791 23.9492ZM74.6867 13.4189C74.893 18.26 71.6758 22.739 66.791 23.9492L67.272 25.8905C73.0982 24.447 76.9309 19.1063 76.6849 13.3337L74.6867 13.4189ZM129.434 -0.970535L75.4453 12.4056L75.9263 14.3469L129.915 0.97077L129.434 -0.970535ZM144.594 56.0575L130.645 -0.240368L128.704 0.240603L142.652 56.5385L144.594 56.0575ZM89.7265 70.6814L143.863 57.2686L143.383 55.3273L89.2455 68.7401L89.7265 70.6814ZM76.9887 65.1093C81.6671 63.9501 86.3932 66.1566 88.6095 70.1922L90.3625 69.2294C87.7206 64.4188 82.0884 61.7853 76.5077 63.1679L76.9887 65.1093ZM69.0851 75.0295C69.161 70.426 72.3103 66.2684 76.9887 65.1093L76.5077 63.1679C70.927 64.5506 67.1758 69.5089 67.0853 74.9965L69.0851 75.0295ZM14.1887 89.3964L68.3257 75.9836L67.8447 74.0423L13.7077 87.4551L14.1887 89.3964ZM-0.970653 32.3684L12.9775 88.6663L14.9188 88.1853L0.970653 31.8874L-0.970653 32.3684Z" fill="#7A7A7A" mask="url(#path-1-inside-1)"/>
<path d="M34.6951 43.8294L38.8632 60.6528L35.5203 61.481L32.039 47.4299L27.5818 48.5342L31.0631 62.5853L27.7201 63.4136L23.552 46.5902L34.6951 43.8294ZM41.959 41.8279C44.097 41.2981 45.8648 41.3313 47.2625 41.9273C48.6557 42.5053 49.5992 43.7908 50.093 45.7838C50.5913 47.795 50.3548 49.4017 49.3834 50.6039C48.4256 51.7836 46.8596 52.6427 44.6853 53.1814L43.4895 53.4777L44.8968 59.1579L41.5539 59.9862L37.4397 43.3802C37.7478 43.227 38.0945 43.0738 38.4797 42.9207C38.8829 42.763 39.2907 42.6236 39.7029 42.5022C40.1107 42.3627 40.5116 42.2345 40.9057 42.1176C41.2999 42.0008 41.6509 41.9042 41.959 41.8279ZM43.06 44.6417C42.8606 44.691 42.582 44.7697 42.2242 44.8776C41.8799 44.9629 41.6126 45.0483 41.4223 45.1339L42.769 50.5696L44.1279 50.2329C45.1969 49.9681 45.9516 49.5599 46.3919 49.0085C46.8277 48.439 46.9177 47.6379 46.6618 46.6051C46.4194 45.6267 45.9771 45.0055 45.3347 44.7415C44.706 44.455 43.9478 44.4217 43.06 44.6417ZM55.7191 47.5342C55.9211 48.3496 56.1391 49.1129 56.373 49.8242C56.6205 50.5128 56.9 51.0975 57.2114 51.578C57.5408 52.0541 57.9159 52.4035 58.3364 52.6262C58.757 52.8489 59.2572 52.8885 59.837 52.7448C60.3987 52.6057 60.8135 52.3394 61.0815 51.9461C61.3675 51.5483 61.5361 51.0642 61.5871 50.4939C61.6517 49.901 61.6237 49.2444 61.5029 48.5243C61.4003 47.7997 61.248 47.0298 61.046 46.2144C60.844 45.3991 60.6192 44.6471 60.3717 43.9584C60.1378 43.2471 59.8561 42.6534 59.5266 42.1774C59.2152 41.6968 58.8492 41.3452 58.4287 41.1224C58.0081 40.8997 57.5079 40.8602 56.9281 41.0038C56.3483 41.1475 55.9244 41.4159 55.6565 41.8093C55.3885 42.2026 55.2222 42.6957 55.1576 43.2886C55.1066 43.859 55.1324 44.5064 55.235 45.231C55.3557 45.9511 55.5171 46.7189 55.7191 47.5342ZM52.3218 48.3759C51.6035 45.4769 51.5971 43.1611 52.3025 41.4287C53.0034 39.6781 54.3051 38.5671 56.2076 38.0957C58.1826 37.6064 59.8705 37.9767 61.2713 39.2066C62.6677 40.4183 63.7251 42.4737 64.4433 45.3727C65.1616 48.2717 65.1793 50.5943 64.4965 52.3404C63.8092 54.0684 62.5053 55.1703 60.5847 55.6462C58.6097 56.1355 56.915 55.7765 55.5005 54.5692C54.0996 53.3394 53.04 51.2749 52.3218 48.3759ZM66.9854 50.743L67.9638 50.5006C68.2329 49.5685 68.3641 48.5456 68.3574 47.4319C68.3643 46.2955 68.283 45.1522 68.1134 44.0019C67.9574 42.829 67.7515 41.6877 67.4958 40.5779C67.2401 39.4682 67.0045 38.4785 66.789 37.6088L66.385 35.9781L75.2451 33.7829L78.7264 47.8341L79.6776 47.5984L81.4755 54.855L78.3772 55.6226L77.2661 51.1382L70.7705 52.7476L71.8816 57.232L68.7833 57.9996L66.9854 50.743ZM70.1158 37.9961C70.2056 38.3585 70.3042 38.834 70.4116 39.4228C70.5326 39.989 70.6513 40.6231 70.7675 41.3251C70.8837 42.027 70.9908 42.7698 71.0888 43.5532C71.2048 44.3321 71.2802 45.1019 71.3148 45.8626C71.3449 46.6052 71.3389 47.3182 71.2967 48.0017C71.2681 48.6627 71.1809 49.242 71.0349 49.7397L75.3563 48.669L72.5618 37.3901L70.1158 37.9961ZM90.6107 47.832L88.8596 44.1408L84.3752 45.2518L84.5771 49.3269L81.0983 50.1888C81.074 46.6755 81.1329 43.459 81.2749 40.5391C81.4124 37.6012 81.5586 34.8149 81.7136 32.1803L85.3554 31.278C86.7632 33.5447 88.2 35.9676 89.666 38.5467C91.1455 41.1033 92.6563 43.9021 94.1982 46.9432L90.6107 47.832ZM84.261 35.0108C84.2369 35.6898 84.2152 36.3394 84.1958 36.9596C84.19 37.5572 84.1842 38.1548 84.1784 38.7524C84.1862 39.3274 84.1963 39.9115 84.2086 40.5046C84.2391 41.0932 84.274 41.6999 84.3135 42.3248L87.602 41.51C87.3452 40.939 87.0928 40.3862 86.8449 39.8514C86.5971 39.3167 86.3333 38.7955 86.0537 38.2878C85.7877 37.7576 85.5036 37.2318 85.2014 36.7105C84.9128 36.1666 84.5993 35.6 84.261 35.0108ZM102.641 26.9954L106.809 43.8188L103.466 44.647L101.628 37.2274L97.1705 38.3317L99.0088 45.7513L95.6658 46.5796L91.4977 29.7562L94.8407 28.928L96.4837 35.5595L100.941 34.4552L99.2979 27.8237L102.641 26.9954ZM110.076 34.067C110.278 34.8824 110.496 35.6457 110.73 36.357C110.977 37.0456 111.257 37.6303 111.568 38.1108C111.897 38.5869 112.272 38.9363 112.693 39.159C113.114 39.3817 113.614 39.4213 114.194 39.2776C114.755 39.1385 115.17 38.8722 115.438 38.4789C115.724 38.0811 115.893 37.597 115.944 37.0267C116.008 36.4338 115.98 35.7772 115.859 35.0571C115.757 34.3325 115.605 33.5626 115.403 32.7472C115.201 31.9319 114.976 31.1799 114.728 30.4912C114.494 29.7799 114.213 29.1862 113.883 28.7102C113.572 28.2296 113.206 27.878 112.785 27.6552C112.365 27.4325 111.864 27.393 111.285 27.5366C110.705 27.6803 110.281 27.9487 110.013 28.3421C109.745 28.7354 109.579 29.2285 109.514 29.8214C109.463 30.3918 109.489 31.0392 109.592 31.7638C109.712 32.4839 109.874 33.2517 110.076 34.067ZM106.678 34.9087C105.96 32.0097 105.954 29.6939 106.659 27.9615C107.36 26.2109 108.662 25.0999 110.564 24.6285C112.539 24.1392 114.227 24.5095 115.628 25.7394C117.024 26.9511 118.082 29.0065 118.8 31.9055C119.518 34.8045 119.536 37.1271 118.853 38.8732C118.166 40.6012 116.862 41.7031 114.941 42.179C112.966 42.6683 111.272 42.3093 109.857 41.102C108.456 39.8722 107.397 37.8077 106.678 34.9087Z" fill="white"/>
</svg>
