<svg width="38" height="35" viewBox="0 0 38 35" fill="none" xmlns="http://www.w3.org/2000/svg">
<rect x="0.0654297" y="0.910645" width="37.0654" height="33.8141" rx="5" fill="white"/>
<path d="M29.9779 10.877C29.1409 11.2325 28.2301 11.4884 27.2919 11.5881C28.2659 11.0182 28.9954 10.118 29.3433 9.05625C28.4293 9.59167 27.428 9.96712 26.3838 10.1659C25.9474 9.70651 25.4196 9.34051 24.8333 9.09074C24.2469 8.84098 23.6146 8.71279 22.9758 8.71418C20.391 8.71418 18.3123 10.7773 18.3123 13.3092C18.3123 13.6647 18.3561 14.0202 18.4272 14.3623C14.5569 14.163 11.1051 12.3422 8.81026 9.55453C8.39212 10.2578 8.173 11.0586 8.1757 11.8736C8.1757 13.4681 8.99899 14.8741 10.2544 15.7009C9.51458 15.6722 8.79205 15.472 8.14561 15.1165V15.173C8.14561 17.4059 9.74843 19.2563 11.8846 19.6818C11.4835 19.7844 11.0709 19.8369 10.6565 19.838C10.3529 19.838 10.0657 19.8084 9.77578 19.768C10.3666 21.5888 12.087 22.9112 14.1357 22.9543C12.5328 24.1906 10.5252 24.9178 8.34528 24.9178C7.95415 24.9178 7.5931 24.9044 7.21838 24.8613C9.28618 26.1676 11.7396 26.9218 14.3818 26.9218C22.9594 26.9218 27.653 19.9242 27.653 13.8506C27.653 13.6512 27.653 13.4519 27.6393 13.2526C28.5474 12.5981 29.3433 11.7874 29.9779 10.877Z" fill="#976EEC"/>
</svg>
