<svg width="38" height="35" viewBox="0 0 38 35" fill="none" xmlns="http://www.w3.org/2000/svg">
<rect y="0.910645" width="37.0654" height="33.8141" rx="5" fill="white"/>
<path d="M30.0111 11.6334C30.1792 11.0745 30.0111 10.6646 29.2162 10.6646H26.5831C25.9131 10.6646 25.6069 11.0192 25.4388 11.4086C25.4388 11.4086 24.1 14.6768 22.2029 16.7959C21.5906 17.4125 21.3108 17.6072 20.977 17.6072C20.8101 17.6072 20.5676 17.4125 20.5676 16.8536V11.6334C20.5676 10.9627 20.3743 10.6646 19.816 10.6646H15.6784C15.2605 10.6646 15.0084 10.9747 15.0084 11.2704C15.0084 11.9051 15.9569 12.0517 16.0542 13.8402V17.7202C16.0542 18.57 15.9017 18.7251 15.5655 18.7251C14.6734 18.7251 12.5025 15.4449 11.2142 11.6899C10.9633 10.9603 10.7099 10.6658 10.0375 10.6658H7.40561C6.65277 10.6658 6.50269 11.0204 6.50269 11.4098C6.50269 12.1094 7.3948 15.5711 10.6583 20.1494C12.8339 23.2758 15.8969 24.9706 18.6873 24.9706C20.3599 24.9706 20.5664 24.5943 20.5664 23.9453V21.5822C20.5664 20.8298 20.7261 20.6783 21.2556 20.6783C21.6446 20.6783 22.3146 20.8754 23.8767 22.3815C25.6609 24.1676 25.9563 24.9694 26.9589 24.9694H29.5908C30.3424 24.9694 30.7183 24.5931 30.5021 23.8503C30.2656 23.1111 29.4131 22.0353 28.2821 20.7624C27.6673 20.0364 26.7488 19.2552 26.469 18.8645C26.0788 18.3609 26.1916 18.1385 26.469 17.6914C26.4702 17.6926 29.6773 13.1707 30.0111 11.6334Z" fill="#976EEC"/>
</svg>
