<svg width="222" height="37" viewBox="0 0 222 37" fill="none" xmlns="http://www.w3.org/2000/svg">
<path d="M27.196 22.379C27.196 23.9083 26.9123 25.2403 26.345 26.375C25.7777 27.485 24.9883 28.41 23.977 29.15C22.9903 29.8653 21.8063 30.408 20.425 30.778C19.0683 31.1233 17.6007 31.296 16.022 31.296C15.134 31.296 14.1843 31.2467 13.173 31.148C12.1863 31.0493 11.1627 30.8643 10.102 30.593L15.504 8.097H28.491L27.603 11.871H19.13L18.057 16.237H19.944C22.4107 16.237 24.236 16.8043 25.42 17.939C26.604 19.049 27.196 20.529 27.196 22.379ZM22.608 22.86C22.608 22.0213 22.3367 21.3553 21.794 20.862C21.276 20.3687 20.3017 20.122 18.871 20.122H17.095L15.43 27.263C15.874 27.337 16.3303 27.374 16.799 27.374C18.649 27.374 20.0797 26.9917 21.091 26.227C22.1023 25.4377 22.608 24.3153 22.608 22.86ZM29.712 31V13.61H33.782V23.489C34.5713 21.9103 35.447 20.3317 36.409 18.753C37.371 17.1497 38.5427 15.4353 39.924 13.61H43.587V31H39.48V20.344C38.9127 21.2073 38.37 22.046 37.852 22.86C37.3587 23.674 36.8653 24.5003 36.372 25.339C35.9033 26.1777 35.41 27.0657 34.892 28.003C34.3987 28.9157 33.8807 29.9147 33.338 31H29.712ZM54.576 16.385C54.576 17.125 54.5513 17.9143 54.502 18.753C54.4773 19.567 54.4157 20.3933 54.317 21.232C54.243 22.046 54.132 22.86 53.984 23.674C53.836 24.4633 53.6387 25.2033 53.392 25.894C52.8987 27.3 52.1463 28.5087 51.135 29.52C50.1237 30.5313 48.6807 31.1357 46.806 31.333L46.362 28.743C47.4473 28.5457 48.2983 28.151 48.915 27.559C49.5563 26.9423 50.062 26.2023 50.432 25.339C50.7527 24.599 50.987 23.7603 51.135 22.823C51.3077 21.8857 51.431 20.899 51.505 19.863C51.579 18.827 51.616 17.791 51.616 16.755C51.616 15.719 51.616 14.7447 51.616 13.832H61.754V31H58.683V16.385H54.576ZM73.261 17.384C73.2117 18.4447 73.15 19.5177 73.076 20.603C73.0267 21.6637 72.9157 22.6997 72.743 23.711C72.595 24.7223 72.3607 25.672 72.04 26.56C71.7193 27.448 71.2753 28.2373 70.708 28.928C70.1653 29.594 69.4747 30.1367 68.636 30.556C67.822 30.9753 66.823 31.222 65.639 31.296L65.01 27.522C65.8733 27.3247 66.5147 27.0163 66.934 26.597C67.3533 26.1777 67.6987 25.709 67.97 25.191C68.266 24.599 68.488 23.9207 68.636 23.156C68.8087 22.3667 68.932 21.5403 69.006 20.677C69.1047 19.8137 69.154 18.9503 69.154 18.087C69.1787 17.199 69.191 16.3727 69.191 15.608V13.61H80.587V31H76.036V17.384H73.261ZM85.212 31V13.61H89.282V23.489C90.0713 21.9103 90.947 20.3317 91.909 18.753C92.871 17.1497 94.0427 15.4353 95.424 13.61H99.087V31H94.98V20.344C94.4127 21.2073 93.87 22.046 93.352 22.86C92.8587 23.674 92.3653 24.5003 91.872 25.339C91.4033 26.1777 90.91 27.0657 90.392 28.003C89.8987 28.9157 89.3807 29.9147 88.838 31H85.212ZM133.164 31L132.091 25.709H125.986L124.95 31H120.214C121.299 26.486 122.397 22.379 123.507 18.679C124.617 14.9543 125.69 11.427 126.726 8.097H131.684C132.769 11.4517 133.842 15.016 134.903 18.79C135.988 22.5393 137.037 26.6093 138.048 31H133.164ZM129.094 12.537C128.847 13.4003 128.613 14.2267 128.391 15.016C128.194 15.7807 127.996 16.5453 127.799 17.31C127.626 18.05 127.454 18.8023 127.281 19.567C127.133 20.3317 126.985 21.121 126.837 21.935H131.314C131.166 21.121 131.018 20.3317 130.87 19.567C130.722 18.8023 130.549 18.05 130.352 17.31C130.179 16.5453 129.982 15.7807 129.76 15.016C129.563 14.2267 129.341 13.4003 129.094 12.537ZM146.558 31.407C144.56 31.407 143.166 30.9383 142.377 30.001C141.588 29.0637 141.193 27.781 141.193 26.153C141.193 25.0183 141.366 23.6987 141.711 22.194L143.783 13.61H148.334L146.373 21.898C146.176 22.638 146.028 23.3163 145.929 23.933C145.83 24.525 145.781 25.0553 145.781 25.524C145.781 26.8067 146.398 27.448 147.631 27.448C148.322 27.448 148.864 27.3123 149.259 27.041C149.678 26.745 150.073 26.3873 150.443 25.968C150.492 25.6227 150.529 25.2897 150.554 24.969C150.603 24.6483 150.69 24.2783 150.813 23.859L153.255 13.61H157.806L155.327 23.896C155.228 24.34 155.142 24.784 155.068 25.228C155.019 25.6473 154.994 26.079 154.994 26.523C154.994 27.2383 155.068 27.9413 155.216 28.632C155.364 29.298 155.549 29.964 155.771 30.63L151.775 31.296C151.726 31.1973 151.664 31.074 151.59 30.926C151.516 30.778 151.442 30.6177 151.368 30.445C151.294 30.2723 151.232 30.1243 151.183 30.001C151.134 29.853 151.097 29.742 151.072 29.668C150.579 30.038 149.937 30.4203 149.148 30.815C148.359 31.2097 147.495 31.407 146.558 31.407ZM151.146 11.242C149.789 11.242 148.642 10.835 147.705 10.021C146.792 9.207 146.311 8.03533 146.262 6.506L149.74 5.655C149.765 6.51833 149.962 7.12267 150.332 7.468C150.702 7.78867 151.158 7.949 151.701 7.949C152.293 7.949 152.811 7.78867 153.255 7.468C153.699 7.14733 154.118 6.55533 154.513 5.692L157.621 6.765C157.103 8.319 156.289 9.45367 155.179 10.169C154.094 10.8843 152.749 11.242 151.146 11.242ZM165.761 17.384C165.712 18.4447 165.65 19.5177 165.576 20.603C165.527 21.6637 165.416 22.6997 165.243 23.711C165.095 24.7223 164.861 25.672 164.54 26.56C164.219 27.448 163.775 28.2373 163.208 28.928C162.665 29.594 161.975 30.1367 161.136 30.556C160.322 30.9753 159.323 31.222 158.139 31.296L157.51 27.522C158.373 27.3247 159.015 27.0163 159.434 26.597C159.853 26.1777 160.199 25.709 160.47 25.191C160.766 24.599 160.988 23.9207 161.136 23.156C161.309 22.3667 161.432 21.5403 161.506 20.677C161.605 19.8137 161.654 18.9503 161.654 18.087C161.679 17.199 161.691 16.3727 161.691 15.608V13.61H173.087V31H168.536V17.384H165.761ZM177.712 31V13.61H181.782V23.489C182.571 21.9103 183.447 20.3317 184.409 18.753C185.371 17.1497 186.543 15.4353 187.924 13.61H191.587V31H187.48V20.344C186.913 21.2073 186.37 22.046 185.852 22.86C185.359 23.674 184.865 24.5003 184.372 25.339C183.903 26.1777 183.41 27.0657 182.892 28.003C182.399 28.9157 181.881 29.9147 181.338 31H177.712ZM195.546 31V13.832H198.321V28.41H201.762V17.791H204.537V28.41H207.941V13.832H210.716V31H195.546Z" fill="white"/>
</svg>
