<svg width="166" height="24" viewBox="0 0 166 24" fill="none" xmlns="http://www.w3.org/2000/svg">
<path d="M0.342951 23L5.81895 0.0969993H9.88895L6.22595 15.304C6.86728 14.268 7.61962 13.1087 8.48295 11.826C9.34628 10.5187 10.259 9.18667 11.221 7.83C12.183 6.47333 13.1573 5.129 14.144 3.797C15.1306 2.44033 16.0803 1.207 16.993 0.0969993H21.026L15.55 23H11.48L15.291 7.164C13.2436 9.976 11.369 12.6523 9.66695 15.193C7.98962 17.7337 6.32462 20.336 4.67195 23H0.342951ZM26.576 8.385C26.576 9.125 26.5513 9.91433 26.502 10.753C26.4773 11.567 26.4156 12.3933 26.317 13.232C26.243 14.046 26.132 14.86 25.984 15.674C25.836 16.4633 25.6386 17.2033 25.392 17.894C24.8986 19.3 24.1463 20.5087 23.135 21.52C22.1236 22.5313 20.6806 23.1357 18.806 23.333L18.362 20.743C19.4473 20.5457 20.2983 20.151 20.915 19.559C21.5563 18.9423 22.062 18.2023 22.432 17.339C22.7526 16.599 22.987 15.7603 23.135 14.823C23.3076 13.8857 23.431 12.899 23.505 11.863C23.579 10.827 23.616 9.791 23.616 8.755C23.616 7.719 23.616 6.74467 23.616 5.832H33.754V23H30.683V8.385H26.576ZM53.845 14.268C53.845 15.6493 53.6476 16.9073 53.253 18.042C52.8583 19.152 52.3033 20.114 51.588 20.928C50.8726 21.742 50.0093 22.371 48.998 22.815C48.0113 23.259 46.9013 23.481 45.668 23.481C44.4346 23.481 43.3123 23.259 42.301 22.815C41.3143 22.371 40.451 21.742 39.711 20.928C38.9956 20.114 38.4406 19.152 38.046 18.042C37.6513 16.9073 37.454 15.6493 37.454 14.268C37.454 12.9113 37.6513 11.678 38.046 10.568C38.4653 9.43333 39.0326 8.47133 39.748 7.682C40.488 6.868 41.3636 6.25133 42.375 5.832C43.3863 5.388 44.484 5.166 45.668 5.166C46.8766 5.166 47.9743 5.388 48.961 5.832C49.9723 6.25133 50.8356 6.868 51.551 7.682C52.291 8.47133 52.8583 9.43333 53.253 10.568C53.6476 11.678 53.845 12.9113 53.845 14.268ZM42.079 14.305C42.079 15.859 42.3503 17.117 42.893 18.079C43.4603 19.041 44.3606 19.522 45.594 19.522C46.778 19.522 47.666 19.041 48.258 18.079C48.8746 17.117 49.183 15.859 49.183 14.305C49.183 12.751 48.8993 11.5053 48.332 10.568C47.7893 9.606 46.9013 9.125 45.668 9.125C44.484 9.125 43.5836 9.606 42.967 10.568C42.375 11.5053 42.079 12.751 42.079 14.305ZM71.161 23H66.61V16.118H61.615V23H57.064V5.61H61.615V12.344H66.61V5.61H71.161V23ZM102.648 0.0969993C102.697 0.614999 102.759 1.30567 102.833 2.169C102.932 3.00767 103.018 3.92033 103.092 4.907C103.166 5.869 103.228 6.868 103.277 7.904C103.351 8.94 103.413 9.902 103.462 10.79L109.012 0.0969993H113.193C112.7 3.82167 112.071 7.58333 111.306 11.382C110.566 15.156 109.764 19.0287 108.901 23H104.72L109.308 5.018L104.202 14.897H100.983C100.934 13.269 100.847 11.6163 100.724 9.939C100.625 8.26167 100.514 6.683 100.391 5.203L96.284 23H92.103C92.621 21.1253 93.1513 19.1767 93.694 17.154C94.2613 15.1313 94.8286 13.121 95.396 11.123C95.9633 9.10033 96.5183 7.15167 97.061 5.277C97.6283 3.40233 98.1833 1.67567 98.726 0.0969993H102.648ZM124.293 23.185C124.17 22.9383 124.059 22.6793 123.96 22.408C123.861 22.112 123.787 21.7913 123.738 21.446C123.245 21.89 122.554 22.334 121.666 22.778C120.803 23.1973 119.779 23.407 118.595 23.407C116.671 23.407 115.253 22.8273 114.34 21.668C113.452 20.5087 113.008 19.041 113.008 17.265C113.008 15.785 113.255 14.342 113.748 12.936C114.241 11.53 114.981 10.272 115.968 9.162C116.979 8.052 118.237 7.164 119.742 6.498C121.247 5.80733 122.998 5.462 124.996 5.462C125.292 5.462 125.625 5.47433 125.995 5.499C126.39 5.52367 126.784 5.573 127.179 5.647C127.574 5.721 127.956 5.81967 128.326 5.943C128.721 6.04167 129.066 6.165 129.362 6.313L126.846 16.673C126.723 17.191 126.612 17.6843 126.513 18.153C126.439 18.597 126.402 19.078 126.402 19.596C126.402 20.114 126.451 20.632 126.55 21.15C126.649 21.6433 126.797 22.1983 126.994 22.815L124.293 23.185ZM119.224 20.891C120.161 20.891 120.988 20.6937 121.703 20.299C122.443 19.9043 123.06 19.4357 123.553 18.893C123.578 18.523 123.615 18.1037 123.664 17.635C123.738 17.1663 123.824 16.7223 123.923 16.303L125.958 8.2C125.835 8.15067 125.6 8.11367 125.255 8.089C124.91 8.03967 124.638 8.015 124.441 8.015C123.183 8.015 122.036 8.26167 121 8.755C119.989 9.24833 119.113 9.91433 118.373 10.753C117.633 11.567 117.066 12.5167 116.671 13.602C116.276 14.6627 116.079 15.7727 116.079 16.932C116.079 17.4993 116.128 18.0297 116.227 18.523C116.326 18.9917 116.486 19.3987 116.708 19.744C116.955 20.0893 117.275 20.373 117.67 20.595C118.089 20.7923 118.607 20.891 119.224 20.891ZM130.509 14.305C130.509 13.047 130.706 11.863 131.101 10.753C131.496 9.643 132.1 8.681 132.914 7.867C133.728 7.02833 134.752 6.37467 135.985 5.906C137.243 5.41267 138.735 5.166 140.462 5.166C141.498 5.166 142.435 5.24 143.274 5.388C144.113 5.536 144.964 5.78267 145.827 6.128L144.828 9.791C144.335 9.61833 143.78 9.47033 143.163 9.347C142.571 9.199 141.806 9.125 140.869 9.125C139.784 9.125 138.871 9.26067 138.131 9.532C137.416 9.77867 136.836 10.1363 136.392 10.605C135.948 11.049 135.627 11.5917 135.43 12.233C135.233 12.8743 135.134 13.565 135.134 14.305C135.134 15.9083 135.578 17.1663 136.466 18.079C137.379 18.9917 138.92 19.448 141.091 19.448C141.806 19.448 142.546 19.3987 143.311 19.3C144.1 19.2013 144.816 19.041 145.457 18.819L146.123 22.556C145.482 22.8027 144.705 23 143.792 23.148C142.879 23.3207 141.806 23.407 140.573 23.407C138.797 23.407 137.268 23.1727 135.985 22.704C134.727 22.2353 133.691 21.594 132.877 20.78C132.063 19.966 131.459 19.004 131.064 17.894C130.694 16.784 130.509 15.5877 130.509 14.305ZM154.3 12.307C155.163 11.271 156.039 10.1487 156.927 8.94C157.84 7.73133 158.604 6.62133 159.221 5.61H164.734C164.29 6.17733 163.797 6.80633 163.254 7.497C162.711 8.18767 162.144 8.89067 161.552 9.606C160.985 10.3213 160.405 11.012 159.813 11.678C159.246 12.344 158.715 12.9483 158.222 13.491C158.839 14.083 159.492 14.786 160.183 15.6C160.898 16.3893 161.589 17.2157 162.255 18.079C162.921 18.9423 163.525 19.8057 164.068 20.669C164.635 21.5323 165.092 22.3093 165.437 23H160.183C159.887 22.3833 159.505 21.6927 159.036 20.928C158.567 20.1387 158.062 19.374 157.519 18.634C156.976 17.8693 156.421 17.154 155.854 16.488C155.287 15.7973 154.769 15.23 154.3 14.786V23H149.712V5.61H154.3V12.307Z" fill="white"/>
</svg>
