<svg width="183" height="31" viewBox="0 0 183 31" fill="none" xmlns="http://www.w3.org/2000/svg">
<path d="M11.6369 12.086C12.2289 12.826 12.7963 13.6647 13.3389 14.602C13.8816 15.5147 14.3749 16.5013 14.8189 17.562C15.2876 18.598 15.6946 19.671 16.0399 20.781C16.4099 21.8663 16.7059 22.9393 16.9279 24H12.1549C11.9823 23.1367 11.7233 22.2117 11.3779 21.225C11.0573 20.2137 10.6749 19.227 10.2309 18.265C9.81161 17.303 9.35528 16.4027 8.86194 15.564C8.36861 14.7007 7.87528 13.973 7.38194 13.381L4.82894 24H0.277943L5.75394 1.097H10.3419L8.04794 10.606C8.81261 9.91533 9.57728 9.163 10.3419 8.349C11.1313 7.51033 11.8836 6.67167 12.5989 5.833C13.3143 4.96967 13.9803 4.131 14.5969 3.317C15.2383 2.503 15.7809 1.763 16.2249 1.097H21.4419C20.8746 1.86167 20.2333 2.70033 19.5179 3.613C18.8026 4.52567 18.0256 5.47533 17.1869 6.462C16.3483 7.424 15.4603 8.386 14.5229 9.348C13.5856 10.31 12.6236 11.2227 11.6369 12.086ZM33.8369 6.832V24H30.8399V10.902C30.1739 11.7407 29.4709 12.7273 28.7309 13.862C28.0156 14.9967 27.2879 16.1683 26.5479 17.377C25.8326 18.561 25.1419 19.7327 24.4759 20.892C23.8099 22.0513 23.2179 23.0873 22.6999 24H19.9619V6.832H22.9219V19.19C23.4893 18.228 24.1059 17.192 24.7719 16.082C25.4379 14.9473 26.1286 13.825 26.8439 12.715C27.5593 11.5803 28.2746 10.5073 28.9899 9.496C29.7053 8.46 30.4083 7.572 31.0989 6.832H33.8369ZM45.4179 20.744C45.9113 20.744 46.3923 20.744 46.8609 20.744C47.3296 20.7193 47.7366 20.6823 48.0819 20.633V16.637C47.7859 16.5877 47.4283 16.5507 47.0089 16.526C46.5896 16.4767 46.2073 16.452 45.8619 16.452C45.3933 16.452 44.9369 16.489 44.4929 16.563C44.0489 16.6123 43.6543 16.711 43.3089 16.859C42.9883 17.007 42.7293 17.2167 42.5319 17.488C42.3346 17.7593 42.2359 18.117 42.2359 18.561C42.2359 19.3503 42.5319 19.9177 43.1239 20.263C43.7159 20.5837 44.4806 20.744 45.4179 20.744ZM45.0109 6.166C46.4416 6.166 47.6256 6.33867 48.5629 6.684C49.5249 7.00467 50.2896 7.47333 50.8569 8.09C51.4243 8.682 51.8313 9.422 52.0779 10.31C52.3246 11.1733 52.4479 12.1477 52.4479 13.233V23.593C51.7819 23.741 50.7953 23.9137 49.4879 24.111C48.1806 24.3083 46.7129 24.407 45.0849 24.407C43.9749 24.407 42.9636 24.3083 42.0509 24.111C41.1629 23.9137 40.3983 23.593 39.7569 23.149C39.1156 22.6803 38.6223 22.0883 38.2769 21.373C37.9316 20.633 37.7589 19.7327 37.7589 18.672C37.7589 17.6607 37.9563 16.8097 38.3509 16.119C38.7456 15.4283 39.2759 14.8733 39.9419 14.454C40.6079 14.0347 41.3726 13.7387 42.2359 13.566C43.0993 13.3687 43.9996 13.27 44.9369 13.27C46.1209 13.27 47.1693 13.3687 48.0819 13.566V13.011C48.0819 12.1477 47.8106 11.4323 47.2679 10.865C46.7253 10.273 45.7879 9.977 44.4559 9.977C43.5926 9.977 42.7539 10.0387 41.9399 10.162C41.1506 10.2853 40.5093 10.4333 40.0159 10.606L39.3869 6.943C39.9543 6.74567 40.7559 6.573 41.7919 6.425C42.8279 6.25233 43.9009 6.166 45.0109 6.166ZM70.9109 24H66.3599V17.118H61.3649V24H56.8139V6.61H61.3649V13.344H66.3599V6.61H70.9109V24ZM90.5949 6.61C90.1263 8.238 89.6699 9.84133 89.2259 11.42C88.8066 12.974 88.3626 14.5033 87.8939 16.008C87.4253 17.488 86.9196 18.9433 86.3769 20.374C85.8589 21.8047 85.2916 23.1983 84.6749 24.555C84.2063 25.5417 83.7376 26.3927 83.2689 27.108C82.8249 27.8233 82.3193 28.403 81.7519 28.847C81.2093 29.3157 80.5926 29.661 79.9019 29.883C79.2359 30.105 78.4466 30.216 77.5339 30.216C76.7693 30.216 76.0663 30.1543 75.4249 30.031C74.8083 29.9077 74.2903 29.7473 73.8709 29.55L74.7219 25.739C75.2153 25.961 75.6469 26.109 76.0169 26.183C76.4116 26.2817 76.8309 26.331 77.2749 26.331C78.1629 26.331 78.8783 26.035 79.4209 25.443C79.9636 24.851 80.3953 24.148 80.7159 23.334C79.6306 21.1633 78.5453 18.6843 77.4599 15.897C76.3746 13.085 75.3879 9.98933 74.4999 6.61H79.2359C79.4579 7.52267 79.7046 8.497 79.9759 9.533C80.2719 10.569 80.5803 11.605 80.9009 12.641C81.2216 13.677 81.5546 14.7007 81.8999 15.712C82.2699 16.6987 82.6399 17.6237 83.0099 18.487C83.2566 17.6237 83.5156 16.6987 83.7869 15.712C84.0583 14.7007 84.3173 13.6893 84.5639 12.678C84.8106 11.642 85.0449 10.606 85.2669 9.57C85.5136 8.534 85.7356 7.54733 85.9329 6.61H90.5949ZM118.419 0.837998C121.33 0.837998 123.587 1.44233 125.19 2.651C126.793 3.835 127.595 5.78367 127.595 8.497C127.595 11.235 126.781 13.2207 125.153 14.454C123.55 15.6627 121.268 16.267 118.308 16.267H116.68V24H112.129V1.393C112.573 1.29433 113.066 1.208 113.609 1.134C114.176 1.06 114.744 1.01066 115.311 0.985999C115.878 0.936666 116.433 0.899666 116.976 0.875C117.519 0.850332 118 0.837998 118.419 0.837998ZM118.937 4.797C118.666 4.797 118.283 4.80933 117.79 4.834C117.321 4.834 116.951 4.85867 116.68 4.908V12.308H118.53C119.985 12.308 121.083 12.0243 121.823 11.457C122.563 10.865 122.933 9.866 122.933 8.46C122.933 7.128 122.563 6.19067 121.823 5.648C121.108 5.08067 120.146 4.797 118.937 4.797ZM130.962 24V6.61H135.032V16.489C135.821 14.9103 136.697 13.3317 137.659 11.753C138.621 10.1497 139.793 8.43533 141.174 6.61H144.837V24H140.73V13.344C140.163 14.2073 139.62 15.046 139.102 15.86C138.609 16.674 138.115 17.5003 137.622 18.339C137.153 19.1777 136.66 20.0657 136.142 21.003C135.649 21.9157 135.131 22.9147 134.588 24H130.962ZM153.791 20.596C154.186 20.67 154.617 20.7317 155.086 20.781C155.555 20.8057 155.962 20.818 156.307 20.818C156.8 20.818 157.294 20.781 157.787 20.707C158.28 20.633 158.712 20.4973 159.082 20.3C159.477 20.1027 159.797 19.8437 160.044 19.523C160.291 19.1777 160.414 18.746 160.414 18.228C160.414 17.6113 160.13 17.192 159.563 16.97C159.02 16.7233 158.231 16.6 157.195 16.6H154.753L153.791 20.596ZM157.639 13.566C159.02 13.566 159.982 13.3317 160.525 12.863C161.092 12.3697 161.376 11.827 161.376 11.235C161.376 10.7417 161.203 10.3593 160.858 10.088C160.513 9.81667 160.007 9.681 159.341 9.681C158.206 9.681 157.355 9.96467 156.788 10.532C156.221 11.0993 155.838 11.8517 155.641 12.789L155.493 13.566H157.639ZM151.164 13.418C151.534 11.938 151.99 10.7293 152.533 9.792C153.1 8.83 153.742 8.09 154.457 7.572C155.197 7.02933 155.999 6.65933 156.862 6.462C157.725 6.26467 158.65 6.166 159.637 6.166C161.487 6.166 162.942 6.573 164.003 7.387C165.088 8.17633 165.631 9.22467 165.631 10.532C165.631 11.568 165.31 12.4807 164.669 13.27C164.052 14.0593 163.226 14.6513 162.19 15.046C163.053 15.3913 163.695 15.8847 164.114 16.526C164.558 17.1673 164.78 17.8827 164.78 18.672C164.78 19.338 164.644 20.004 164.373 20.67C164.126 21.336 163.658 21.9527 162.967 22.52C162.276 23.0627 161.327 23.5067 160.118 23.852C158.909 24.1973 157.355 24.37 155.456 24.37C154.42 24.37 153.359 24.296 152.274 24.148C151.213 24 150.042 23.7657 148.759 23.445L151.164 13.418ZM168.813 7.276C169.627 7.00467 170.515 6.795 171.477 6.647C172.464 6.47433 173.438 6.388 174.4 6.388C175.337 6.388 176.238 6.47433 177.101 6.647C177.964 6.795 178.729 7.06633 179.395 7.461C180.061 7.85567 180.591 8.37367 180.986 9.015C181.381 9.63167 181.578 10.4087 181.578 11.346C181.578 11.79 181.492 12.2093 181.319 12.604C181.146 12.9987 180.924 13.3563 180.653 13.677C180.382 13.9977 180.086 14.269 179.765 14.491C179.469 14.713 179.173 14.8733 178.877 14.972C179.814 15.3173 180.591 15.823 181.208 16.489C181.849 17.1303 182.17 18.043 182.17 19.227C182.17 20.8797 181.467 22.1623 180.061 23.075C178.68 23.963 176.793 24.407 174.4 24.407C172.92 24.407 171.637 24.296 170.552 24.074C169.491 23.852 168.739 23.6423 168.295 23.445L168.924 20.855C169.294 20.9783 169.96 21.1633 170.922 21.41C171.884 21.632 173.043 21.743 174.4 21.743C176.028 21.743 177.212 21.5087 177.952 21.04C178.692 20.5713 179.062 19.9423 179.062 19.153C179.062 18.265 178.692 17.562 177.952 17.044C177.212 16.526 176.213 16.267 174.955 16.267H171.329V13.825H174.733C175.991 13.825 176.928 13.6153 177.545 13.196C178.162 12.7767 178.47 12.2093 178.47 11.494C178.47 10.7293 178.125 10.125 177.434 9.681C176.743 9.237 175.658 9.015 174.178 9.015C173.487 9.015 172.686 9.10133 171.773 9.274C170.885 9.44667 170.12 9.681 169.479 9.977L168.813 7.276Z" fill="white"/>
</svg>
