<svg width="309" height="35" viewBox="0 0 309 35" fill="none" xmlns="http://www.w3.org/2000/svg">
<path d="M7.073 28.312C6.683 28.312 6.215 28.299 5.669 28.273C5.149 28.247 4.59 28.195 3.992 28.117C3.394 28.065 2.783 27.987 2.159 27.883C1.561 27.779 1.015 27.649 0.521 27.493L6.098 4.327C6.618 4.197 7.164 4.093 7.736 4.015C8.334 3.911 8.906 3.833 9.452 3.781C10.024 3.703 10.57 3.651 11.09 3.625C11.61 3.599 12.065 3.586 12.455 3.586C13.573 3.586 14.587 3.69 15.497 3.898C16.407 4.106 17.187 4.444 17.837 4.912C18.487 5.38 18.994 5.978 19.358 6.706C19.722 7.408 19.904 8.266 19.904 9.28C19.904 10.45 19.579 11.581 18.929 12.673C18.305 13.739 17.161 14.597 15.497 15.247C16.589 15.767 17.382 16.417 17.876 17.197C18.37 17.951 18.617 18.9 18.617 20.044C18.617 21.292 18.37 22.423 17.876 23.437C17.382 24.451 16.641 25.322 15.653 26.05C14.691 26.752 13.482 27.311 12.026 27.727C10.596 28.117 8.945 28.312 7.073 28.312ZM7.619 17.392L6.02 24.061C6.306 24.113 6.67 24.152 7.112 24.178C7.58 24.204 8.139 24.217 8.789 24.217C9.257 24.217 9.79 24.152 10.388 24.022C10.986 23.892 11.545 23.671 12.065 23.359C12.585 23.047 13.027 22.618 13.391 22.072C13.755 21.526 13.937 20.837 13.937 20.005C13.937 18.965 13.586 18.276 12.884 17.938C12.182 17.574 11.272 17.392 10.154 17.392H7.619ZM8.594 13.531H10.076C10.726 13.531 11.363 13.479 11.987 13.375C12.611 13.245 13.17 13.037 13.664 12.751C14.158 12.465 14.561 12.088 14.873 11.62C15.185 11.152 15.341 10.58 15.341 9.904C15.341 9.072 15.055 8.487 14.483 8.149C13.911 7.811 13.118 7.642 12.104 7.642C11.688 7.642 11.285 7.655 10.895 7.681C10.531 7.681 10.206 7.707 9.92 7.759L8.594 13.531ZM36.557 9.67H40.223L35.855 28H32.15L36.557 9.67ZM24.857 24.841C25.455 24.841 25.962 24.75 26.378 24.568C26.82 24.36 27.171 24.1 27.431 23.788C27.717 23.45 27.925 23.073 28.055 22.657C28.185 22.215 28.25 21.773 28.25 21.331C28.25 20.785 28.068 20.33 27.704 19.966C27.34 19.576 26.599 19.381 25.481 19.381H24.896L23.648 24.724C23.986 24.802 24.389 24.841 24.857 24.841ZM24.155 28.312C23.401 28.312 22.595 28.26 21.737 28.156C20.905 28.078 20.086 27.909 19.28 27.649L23.531 9.67H27.236L25.754 15.91C25.884 15.884 26.027 15.871 26.183 15.871C26.365 15.845 26.521 15.832 26.651 15.832C28.367 15.832 29.68 16.274 30.59 17.158C31.5 18.016 31.955 19.173 31.955 20.629C31.955 21.877 31.747 22.982 31.331 23.944C30.941 24.88 30.395 25.673 29.693 26.323C28.991 26.973 28.159 27.467 27.197 27.805C26.261 28.143 25.247 28.312 24.155 28.312ZM59.762 4.795C59.372 4.925 58.722 5.055 57.812 5.185C56.928 5.289 55.94 5.432 54.848 5.614C54.094 5.718 53.366 5.874 52.664 6.082C51.988 6.264 51.325 6.55 50.675 6.94C50.051 7.33 49.466 7.863 48.92 8.539C48.374 9.215 47.88 10.073 47.438 11.113C48.192 10.775 48.894 10.541 49.544 10.411C50.22 10.255 50.857 10.177 51.455 10.177C52.235 10.177 53.002 10.294 53.756 10.528C54.51 10.762 55.173 11.139 55.745 11.659C56.317 12.179 56.772 12.855 57.11 13.687C57.474 14.493 57.656 15.494 57.656 16.69C57.656 18.562 57.383 20.239 56.837 21.721C56.317 23.177 55.589 24.412 54.653 25.426C53.743 26.414 52.651 27.181 51.377 27.727C50.103 28.247 48.725 28.507 47.243 28.507C46.255 28.507 45.358 28.364 44.552 28.078C43.746 27.792 43.044 27.35 42.446 26.752C41.848 26.154 41.38 25.374 41.042 24.412C40.73 23.45 40.574 22.306 40.574 20.98C40.574 19.186 40.821 17.418 41.315 15.676C41.835 13.934 42.394 12.27 42.992 10.684C43.876 8.214 45.241 6.199 47.087 4.639C48.933 3.079 51.507 2.052 54.809 1.558C56.109 1.376 57.149 1.246 57.929 1.168C58.709 1.064 59.372 0.946999 59.918 0.816999L59.762 4.795ZM50.129 14.116C49.479 14.116 48.816 14.22 48.14 14.428C47.464 14.636 46.892 14.883 46.424 15.169C45.67 17.145 45.293 18.887 45.293 20.395C45.293 21.877 45.514 22.917 45.956 23.515C46.424 24.087 47.1 24.373 47.984 24.373C48.608 24.373 49.206 24.204 49.778 23.866C50.35 23.502 50.857 23.008 51.299 22.384C51.767 21.76 52.131 21.032 52.391 20.2C52.677 19.368 52.82 18.458 52.82 17.47C52.82 16.222 52.573 15.351 52.079 14.857C51.585 14.363 50.935 14.116 50.129 14.116ZM58.709 18.991C58.709 17.379 58.956 15.962 59.45 14.74C59.944 13.518 60.594 12.504 61.4 11.698C62.206 10.866 63.129 10.242 64.169 9.826C65.209 9.41 66.275 9.202 67.367 9.202C70.071 9.202 72.125 10.008 73.529 11.62C74.933 13.206 75.635 15.533 75.635 18.601C75.635 18.913 75.622 19.238 75.596 19.576C75.596 19.914 75.583 20.187 75.557 20.395H63.662C63.662 21.591 64.156 22.54 65.144 23.242C66.132 23.918 67.406 24.256 68.966 24.256C69.928 24.256 70.838 24.152 71.696 23.944C72.58 23.736 73.321 23.528 73.919 23.32L74.582 27.415C73.75 27.701 72.866 27.935 71.93 28.117C70.994 28.325 69.941 28.429 68.771 28.429C67.211 28.429 65.807 28.234 64.559 27.844C63.337 27.428 62.284 26.83 61.4 26.05C60.542 25.244 59.879 24.256 59.411 23.086C58.943 21.916 58.709 20.551 58.709 18.991ZM70.994 17.08C70.994 16.586 70.929 16.118 70.799 15.676C70.669 15.208 70.461 14.792 70.175 14.428C69.889 14.064 69.525 13.778 69.083 13.57C68.641 13.336 68.095 13.219 67.445 13.219C66.821 13.219 66.275 13.323 65.807 13.531C65.365 13.739 64.988 14.025 64.676 14.389C64.39 14.753 64.156 15.169 63.974 15.637C63.818 16.105 63.714 16.586 63.662 17.08H70.994ZM90.416 18.991C90.416 17.353 90.091 16.014 89.441 14.974C88.791 13.908 87.803 13.375 86.477 13.375C86.113 13.375 85.723 13.401 85.307 13.453C84.891 13.479 84.54 13.505 84.254 13.531V23.593C84.566 23.801 84.982 23.97 85.502 24.1C86.022 24.23 86.542 24.295 87.062 24.295C88.206 24.295 89.051 23.84 89.597 22.93C90.143 21.994 90.416 20.681 90.416 18.991ZM95.291 18.835C95.291 20.239 95.135 21.539 94.823 22.735C94.511 23.905 94.056 24.919 93.458 25.777C92.86 26.609 92.106 27.259 91.196 27.727C90.286 28.195 89.233 28.429 88.037 28.429C86.815 28.429 85.554 28.13 84.254 27.532V34.435H79.457V10.255C80.341 9.969 81.42 9.735 82.694 9.553C83.994 9.371 85.268 9.28 86.516 9.28C89.35 9.28 91.521 10.138 93.029 11.854C94.537 13.57 95.291 15.897 95.291 18.835ZM98.957 28V9.67H103.247V20.083C104.079 18.419 105.002 16.755 106.016 15.091C107.03 13.401 108.265 11.594 109.721 9.67H113.582V28H109.253V16.768C108.655 17.678 108.083 18.562 107.537 19.42C107.017 20.278 106.497 21.149 105.977 22.033C105.483 22.917 104.963 23.853 104.417 24.841C103.897 25.803 103.351 26.856 102.779 28H98.957ZM152.582 9.67V28H147.746V13.648H142.754V28H137.957V9.67H152.582ZM161.318 18.484C162.878 18.458 164.282 18.393 165.53 18.289C166.778 18.159 167.831 17.938 168.689 17.626C169.573 17.314 170.249 16.885 170.717 16.339C171.185 15.767 171.419 15.052 171.419 14.194C171.419 13.986 171.367 13.765 171.263 13.531C171.185 13.297 171.029 13.076 170.795 12.868C170.587 12.66 170.288 12.491 169.898 12.361C169.508 12.231 169.027 12.166 168.455 12.166C167.571 12.166 166.739 12.348 165.959 12.712C165.205 13.05 164.516 13.518 163.892 14.116C163.268 14.688 162.735 15.351 162.293 16.105C161.877 16.859 161.552 17.652 161.318 18.484ZM165.257 28.468C163.983 28.468 162.878 28.286 161.942 27.922C161.006 27.532 160.226 27.025 159.602 26.401C158.978 25.777 158.51 25.062 158.198 24.256C157.912 23.424 157.769 22.566 157.769 21.682C157.769 20.044 158.016 18.484 158.51 17.002C159.03 15.52 159.771 14.233 160.733 13.141C161.695 12.023 162.852 11.139 164.204 10.489C165.582 9.813 167.129 9.475 168.845 9.475C169.859 9.475 170.73 9.605 171.458 9.865C172.186 10.099 172.784 10.424 173.252 10.84C173.72 11.23 174.058 11.698 174.266 12.244C174.5 12.79 174.617 13.362 174.617 13.96C174.617 15.598 174.201 16.872 173.369 17.782C172.537 18.692 171.458 19.381 170.132 19.849C168.806 20.291 167.324 20.577 165.686 20.707C164.074 20.837 162.488 20.928 160.928 20.98C160.772 22.618 161.201 23.814 162.215 24.568C163.229 25.296 164.568 25.66 166.232 25.66C166.778 25.66 167.337 25.621 167.909 25.543C168.507 25.439 169.053 25.335 169.547 25.231C170.067 25.101 170.522 24.971 170.912 24.841C171.302 24.685 171.575 24.555 171.731 24.451L172.004 27.181C171.51 27.441 170.704 27.714 169.586 28C168.468 28.312 167.025 28.468 165.257 28.468ZM187.916 18.991C187.916 17.353 187.591 16.014 186.941 14.974C186.291 13.908 185.303 13.375 183.977 13.375C183.613 13.375 183.223 13.401 182.807 13.453C182.391 13.479 182.04 13.505 181.754 13.531V23.593C182.066 23.801 182.482 23.97 183.002 24.1C183.522 24.23 184.042 24.295 184.562 24.295C185.706 24.295 186.551 23.84 187.097 22.93C187.643 21.994 187.916 20.681 187.916 18.991ZM192.791 18.835C192.791 20.239 192.635 21.539 192.323 22.735C192.011 23.905 191.556 24.919 190.958 25.777C190.36 26.609 189.606 27.259 188.696 27.727C187.786 28.195 186.733 28.429 185.537 28.429C184.315 28.429 183.054 28.13 181.754 27.532V34.435H176.957V10.255C177.841 9.969 178.92 9.735 180.194 9.553C181.494 9.371 182.768 9.28 184.016 9.28C186.85 9.28 189.021 10.138 190.529 11.854C192.037 13.57 192.791 15.897 192.791 18.835ZM195.716 18.835C195.716 17.509 195.924 16.261 196.34 15.091C196.756 13.921 197.393 12.907 198.251 12.049C199.109 11.165 200.188 10.476 201.488 9.982C202.814 9.462 204.387 9.202 206.207 9.202C207.299 9.202 208.287 9.28 209.171 9.436C210.055 9.592 210.952 9.852 211.862 10.216L210.809 14.077C210.289 13.895 209.704 13.739 209.054 13.609C208.43 13.453 207.624 13.375 206.636 13.375C205.492 13.375 204.53 13.518 203.75 13.804C202.996 14.064 202.385 14.441 201.917 14.935C201.449 15.403 201.111 15.975 200.903 16.651C200.695 17.327 200.591 18.055 200.591 18.835C200.591 20.525 201.059 21.851 201.995 22.813C202.957 23.775 204.582 24.256 206.87 24.256C207.624 24.256 208.404 24.204 209.21 24.1C210.042 23.996 210.796 23.827 211.472 23.593L212.174 27.532C211.498 27.792 210.679 28 209.717 28.156C208.755 28.338 207.624 28.429 206.324 28.429C204.452 28.429 202.84 28.182 201.488 27.688C200.162 27.194 199.07 26.518 198.212 25.66C197.354 24.802 196.717 23.788 196.301 22.618C195.911 21.448 195.716 20.187 195.716 18.835ZM223.484 24.334C224.264 24.334 224.953 24.1 225.551 23.632C226.149 23.164 226.656 22.579 227.072 21.877C227.514 21.175 227.839 20.421 228.047 19.615C228.281 18.783 228.398 18.003 228.398 17.275C228.398 16.053 228.216 15.091 227.852 14.389C227.514 13.687 226.799 13.336 225.707 13.336C224.953 13.336 224.264 13.57 223.64 14.038C223.042 14.506 222.535 15.091 222.119 15.793C221.703 16.495 221.378 17.262 221.144 18.094C220.936 18.9 220.832 19.667 220.832 20.395C220.832 21.617 221.001 22.579 221.339 23.281C221.703 23.983 222.418 24.334 223.484 24.334ZM222.509 28.507C220.325 28.507 218.7 27.883 217.634 26.635C216.568 25.387 216.035 23.723 216.035 21.643C216.035 20.083 216.269 18.562 216.737 17.08C217.205 15.598 217.894 14.272 218.804 13.102C219.714 11.932 220.845 10.996 222.197 10.294C223.549 9.566 225.109 9.202 226.877 9.202C228.775 9.202 230.296 9.787 231.44 10.957C232.61 12.101 233.195 13.817 233.195 16.105C233.195 17.639 232.974 19.147 232.532 20.629C232.09 22.111 231.414 23.437 230.504 24.607C229.62 25.777 228.502 26.726 227.15 27.454C225.824 28.156 224.277 28.507 222.509 28.507ZM250.16 28H245.363V20.746H240.098V28H235.301V9.67H240.098V16.768H245.363V9.67H250.16V28ZM262.289 24.568C262.809 24.568 263.316 24.568 263.81 24.568C264.304 24.542 264.733 24.503 265.097 24.451V20.239C264.785 20.187 264.408 20.148 263.966 20.122C263.524 20.07 263.121 20.044 262.757 20.044C262.263 20.044 261.782 20.083 261.314 20.161C260.846 20.213 260.43 20.317 260.066 20.473C259.728 20.629 259.455 20.85 259.247 21.136C259.039 21.422 258.935 21.799 258.935 22.267C258.935 23.099 259.247 23.697 259.871 24.061C260.495 24.399 261.301 24.568 262.289 24.568ZM261.86 9.202C263.368 9.202 264.616 9.384 265.604 9.748C266.618 10.086 267.424 10.58 268.022 11.23C268.62 11.854 269.049 12.634 269.309 13.57C269.569 14.48 269.699 15.507 269.699 16.651V27.571C268.997 27.727 267.957 27.909 266.579 28.117C265.201 28.325 263.654 28.429 261.938 28.429C260.768 28.429 259.702 28.325 258.74 28.117C257.804 27.909 256.998 27.571 256.322 27.103C255.646 26.609 255.126 25.985 254.762 25.231C254.398 24.451 254.216 23.502 254.216 22.384C254.216 21.318 254.424 20.421 254.84 19.693C255.256 18.965 255.815 18.38 256.517 17.938C257.219 17.496 258.025 17.184 258.935 17.002C259.845 16.794 260.794 16.69 261.782 16.69C263.03 16.69 264.135 16.794 265.097 17.002V16.417C265.097 15.507 264.811 14.753 264.239 14.155C263.667 13.531 262.679 13.219 261.275 13.219C260.365 13.219 259.481 13.284 258.623 13.414C257.791 13.544 257.115 13.7 256.595 13.882L255.932 10.021C256.53 9.813 257.375 9.631 258.467 9.475C259.559 9.293 260.69 9.202 261.86 9.202ZM283.154 17.509C283.466 16.963 283.804 16.365 284.168 15.715C284.532 15.039 284.883 14.363 285.221 13.687C285.585 13.011 285.936 12.348 286.274 11.698C286.612 11.048 286.911 10.45 287.171 9.904H290.408C289.992 10.58 289.55 11.295 289.082 12.049C288.64 12.777 288.185 13.518 287.717 14.272C287.249 15.026 286.781 15.767 286.313 16.495C285.845 17.197 285.403 17.834 284.987 18.406C285.533 18.926 286.092 19.576 286.664 20.356C287.236 21.11 287.795 21.916 288.341 22.774C288.887 23.632 289.394 24.516 289.862 25.426C290.356 26.336 290.785 27.194 291.149 28H287.951C287.691 27.324 287.366 26.609 286.976 25.855C286.586 25.101 286.17 24.36 285.728 23.632C285.312 22.878 284.87 22.163 284.402 21.487C283.96 20.811 283.544 20.213 283.154 19.693V28H280.307V19.654C279.891 20.174 279.449 20.772 278.981 21.448C278.539 22.124 278.097 22.839 277.655 23.593C277.239 24.321 276.836 25.075 276.446 25.855C276.056 26.609 275.731 27.324 275.471 28H272.273C272.637 27.194 273.066 26.336 273.56 25.426C274.054 24.516 274.574 23.632 275.12 22.774C275.666 21.916 276.212 21.11 276.758 20.356C277.33 19.576 277.889 18.926 278.435 18.406C278.019 17.834 277.577 17.197 277.109 16.495C276.641 15.767 276.173 15.026 275.705 14.272C275.237 13.518 274.769 12.764 274.301 12.01C273.859 11.256 273.443 10.554 273.053 9.904H276.251C276.511 10.45 276.81 11.061 277.148 11.737C277.486 12.387 277.837 13.063 278.201 13.765C278.565 14.441 278.929 15.117 279.293 15.793C279.657 16.443 279.995 17.041 280.307 17.587V9.904H283.154V17.509ZM301.289 24.568C301.809 24.568 302.316 24.568 302.81 24.568C303.304 24.542 303.733 24.503 304.097 24.451V20.239C303.785 20.187 303.408 20.148 302.966 20.122C302.524 20.07 302.121 20.044 301.757 20.044C301.263 20.044 300.782 20.083 300.314 20.161C299.846 20.213 299.43 20.317 299.066 20.473C298.728 20.629 298.455 20.85 298.247 21.136C298.039 21.422 297.935 21.799 297.935 22.267C297.935 23.099 298.247 23.697 298.871 24.061C299.495 24.399 300.301 24.568 301.289 24.568ZM300.86 9.202C302.368 9.202 303.616 9.384 304.604 9.748C305.618 10.086 306.424 10.58 307.022 11.23C307.62 11.854 308.049 12.634 308.309 13.57C308.569 14.48 308.699 15.507 308.699 16.651V27.571C307.997 27.727 306.957 27.909 305.579 28.117C304.201 28.325 302.654 28.429 300.938 28.429C299.768 28.429 298.702 28.325 297.74 28.117C296.804 27.909 295.998 27.571 295.322 27.103C294.646 26.609 294.126 25.985 293.762 25.231C293.398 24.451 293.216 23.502 293.216 22.384C293.216 21.318 293.424 20.421 293.84 19.693C294.256 18.965 294.815 18.38 295.517 17.938C296.219 17.496 297.025 17.184 297.935 17.002C298.845 16.794 299.794 16.69 300.782 16.69C302.03 16.69 303.135 16.794 304.097 17.002V16.417C304.097 15.507 303.811 14.753 303.239 14.155C302.667 13.531 301.679 13.219 300.275 13.219C299.365 13.219 298.481 13.284 297.623 13.414C296.791 13.544 296.115 13.7 295.595 13.882L294.932 10.021C295.53 9.813 296.375 9.631 297.467 9.475C298.559 9.293 299.69 9.202 300.86 9.202Z" fill="#E76867"/>
</svg>
