<svg width="277" height="67" viewBox="0 0 277 67" fill="none" xmlns="http://www.w3.org/2000/svg">
<path d="M12.84 25L18.12 3.04H8.96L3.68 25H0.44L6.36 0.239999H22.08L16.12 25H12.84ZM29.24 21.24C30.04 21.24 30.7467 21 31.36 20.52C31.9733 20.04 32.4933 19.44 32.92 18.72C33.3733 18 33.7067 17.2267 33.92 16.4C34.16 15.5467 34.28 14.7467 34.28 14C34.28 12.7467 34.0933 11.76 33.72 11.04C33.3733 10.32 32.64 9.96 31.52 9.96C30.7467 9.96 30.04 10.2 29.4 10.68C28.7867 11.16 28.2667 11.76 27.84 12.48C27.4133 13.2 27.08 13.9867 26.84 14.84C26.6267 15.6667 26.52 16.4533 26.52 17.2C26.52 18.4533 26.6933 19.44 27.04 20.16C27.4133 20.88 28.1467 21.24 29.24 21.24ZM28.24 25.52C26 25.52 24.3333 24.88 23.24 23.6C22.1467 22.32 21.6 20.6133 21.6 18.48C21.6 16.88 21.84 15.32 22.32 13.8C22.8 12.28 23.5067 10.92 24.44 9.72C25.3733 8.52 26.5333 7.56 27.92 6.84C29.3067 6.09333 30.9067 5.72 32.72 5.72C34.6667 5.72 36.2267 6.32 37.4 7.52C38.6 8.69333 39.2 10.4533 39.2 12.8C39.2 14.3733 38.9733 15.92 38.52 17.44C38.0667 18.96 37.3733 20.32 36.44 21.52C35.5333 22.72 34.3867 23.6933 33 24.44C31.64 25.16 30.0533 25.52 28.24 25.52ZM45.48 6.2C45.6667 6.76 45.8933 7.44 46.16 8.24C46.4533 9.04 46.76 9.90667 47.08 10.84C47.4 11.7467 47.72 12.68 48.04 13.64C48.3867 14.6 48.7067 15.5333 49 16.44C49.2933 15.56 49.6 14.64 49.92 13.68C50.2667 12.72 50.6 11.7867 50.92 10.88C51.24 9.94667 51.5333 9.08 51.8 8.28C52.0933 7.45333 52.3467 6.76 52.56 6.2H56.64C56.8267 7.85333 57 9.46667 57.16 11.04C57.3467 12.5867 57.4933 14.1333 57.6 15.68C57.7333 17.2 57.84 18.7333 57.92 20.28C58 21.8 58.0667 23.3733 58.12 25H53.6L53.84 11.72L50.84 21.12H47.24L44.28 11.72L44.48 25H39.96C40.04 23.4533 40.12 21.8533 40.2 20.2C40.3067 18.5467 40.4133 16.9067 40.52 15.28C40.6267 13.6267 40.7467 12.0267 40.88 10.48C41.04 8.93333 41.2133 7.50667 41.4 6.2H45.48ZM77.88 15.56C77.88 17.0533 77.6667 18.4133 77.24 19.64C76.8133 20.84 76.2133 21.88 75.44 22.76C74.6667 23.64 73.7333 24.32 72.64 24.8C71.5733 25.28 70.3733 25.52 69.04 25.52C67.7067 25.52 66.4933 25.28 65.4 24.8C64.3333 24.32 63.4 23.64 62.6 22.76C61.8267 21.88 61.2267 20.84 60.8 19.64C60.3733 18.4133 60.16 17.0533 60.16 15.56C60.16 14.0933 60.3733 12.76 60.8 11.56C61.2533 10.3333 61.8667 9.29333 62.64 8.44C63.44 7.56 64.3867 6.89333 65.48 6.44C66.5733 5.96 67.76 5.72 69.04 5.72C70.3467 5.72 71.5333 5.96 72.6 6.44C73.6933 6.89333 74.6267 7.56 75.4 8.44C76.2 9.29333 76.8133 10.3333 77.24 11.56C77.6667 12.76 77.88 14.0933 77.88 15.56ZM65.16 15.6C65.16 17.28 65.4533 18.64 66.04 19.68C66.6533 20.72 67.6267 21.24 68.96 21.24C70.24 21.24 71.2 20.72 71.84 19.68C72.5067 18.64 72.84 17.28 72.84 15.6C72.84 13.92 72.5333 12.5733 71.92 11.56C71.3333 10.52 70.3733 10 69.04 10C67.76 10 66.7867 10.52 66.12 11.56C65.48 12.5733 65.16 13.92 65.16 15.6ZM96.88 10.28H87.52V25H82.56V6.2H96.88V10.28ZM116.52 6.44V25H113.28V10.84C112.56 11.7467 111.8 12.8133 111 14.04C110.227 15.2667 109.44 16.5333 108.64 17.84C107.867 19.12 107.12 20.3867 106.4 21.64C105.68 22.8933 105.04 24.0133 104.48 25H101.52V6.44H104.72V19.8C105.333 18.76 106 17.64 106.72 16.44C107.44 15.2133 108.187 14 108.96 12.8C109.733 11.5733 110.507 10.4133 111.28 9.32C112.053 8.2 112.813 7.24 113.56 6.44H116.52ZM158.8 15.68C158.8 17.3333 158.493 18.7733 157.88 20C157.267 21.2 156.413 22.2 155.32 23C154.253 23.7733 152.973 24.36 151.48 24.76C150.013 25.1333 148.427 25.32 146.72 25.32C145.76 25.32 144.733 25.2667 143.64 25.16C142.573 25.0533 141.467 24.8533 140.32 24.56L146.16 0.239999H160.2L159.24 4.32H150.08L148.92 9.04H150.96C153.627 9.04 155.6 9.65333 156.88 10.88C158.16 12.08 158.8 13.68 158.8 15.68ZM153.84 16.2C153.84 15.2933 153.547 14.5733 152.96 14.04C152.4 13.5067 151.347 13.24 149.8 13.24H147.88L146.08 20.96C146.56 21.04 147.053 21.08 147.56 21.08C149.56 21.08 151.107 20.6667 152.2 19.84C153.293 18.9867 153.84 17.7733 153.84 16.2ZM161.52 25V6.2H165.92V16.88C166.773 15.1733 167.72 13.4667 168.76 11.76C169.8 10.0267 171.067 8.17333 172.56 6.2H176.52V25H172.08V13.48C171.467 14.4133 170.88 15.32 170.32 16.2C169.787 17.08 169.253 17.9733 168.72 18.88C168.213 19.7867 167.68 20.7467 167.12 21.76C166.587 22.7467 166.027 23.8267 165.44 25H161.52ZM188.4 9.2C188.4 10 188.373 10.8533 188.32 11.76C188.293 12.64 188.227 13.5333 188.12 14.44C188.04 15.32 187.92 16.2 187.76 17.08C187.6 17.9333 187.387 18.7333 187.12 19.48C186.587 21 185.773 22.3067 184.68 23.4C183.587 24.4933 182.027 25.1467 180 25.36L179.52 22.56C180.693 22.3467 181.613 21.92 182.28 21.28C182.973 20.6133 183.52 19.8133 183.92 18.88C184.267 18.08 184.52 17.1733 184.68 16.16C184.867 15.1467 185 14.08 185.08 12.96C185.16 11.84 185.2 10.72 185.2 9.6C185.2 8.48 185.2 7.42667 185.2 6.44H196.16V25H192.84V9.2H188.4ZM208.6 10.28C208.547 11.4267 208.48 12.5867 208.4 13.76C208.347 14.9067 208.227 16.0267 208.04 17.12C207.88 18.2133 207.627 19.24 207.28 20.2C206.933 21.16 206.453 22.0133 205.84 22.76C205.253 23.48 204.507 24.0667 203.6 24.52C202.72 24.9733 201.64 25.24 200.36 25.32L199.68 21.24C200.613 21.0267 201.307 20.6933 201.76 20.24C202.213 19.7867 202.587 19.28 202.88 18.72C203.2 18.08 203.44 17.3467 203.6 16.52C203.787 15.6667 203.92 14.7733 204 13.84C204.107 12.9067 204.16 11.9733 204.16 11.04C204.187 10.08 204.2 9.18667 204.2 8.36V6.2H216.52V25H211.6V10.28H208.6ZM221.52 25V6.2H225.92V16.88C226.773 15.1733 227.72 13.4667 228.76 11.76C229.8 10.0267 231.067 8.17333 232.56 6.2H236.52V25H232.08V13.48C231.467 14.4133 230.88 15.32 230.32 16.2C229.787 17.08 229.253 17.9733 228.72 18.88C228.213 19.7867 227.68 20.7467 227.12 21.76C226.587 22.7467 226.027 23.8267 225.44 25H221.52ZM244.04 27.92C244.52 27.8133 245 27.72 245.48 27.64C245.987 27.56 246.453 27.44 246.88 27.28C247.333 27.12 247.733 26.8933 248.08 26.6C248.427 26.3067 248.707 25.9067 248.92 25.4C247.907 25.2933 247.12 24.8933 246.56 24.2C246 23.5067 245.72 22.7333 245.72 21.88C245.72 20.84 246.053 19.9867 246.72 19.32C247.413 18.6533 248.28 18.32 249.32 18.32C250.44 18.32 251.307 18.6933 251.92 19.44C252.56 20.1867 252.88 21.2 252.88 22.48C252.88 23.4133 252.733 24.3467 252.44 25.28C252.147 26.2133 251.667 27.08 251 27.88C250.36 28.68 249.52 29.3733 248.48 29.96C247.44 30.5467 246.173 30.9333 244.68 31.12L244.04 27.92ZM12.52 47.12C13.16 47.92 13.7733 48.8267 14.36 49.84C14.9467 50.8267 15.48 51.8933 15.96 53.04C16.4667 54.16 16.9067 55.32 17.28 56.52C17.68 57.6933 18 58.8533 18.24 60H13.08C12.8933 59.0667 12.6133 58.0667 12.24 57C11.8933 55.9067 11.48 54.84 11 53.8C10.5467 52.76 10.0533 51.7867 9.52 50.88C8.98667 49.9467 8.45333 49.16 7.92 48.52L5.16 60H0.24L6.16 35.24H11.12L8.64 45.52C9.46667 44.7733 10.2933 43.96 11.12 43.08C11.9733 42.1733 12.7867 41.2667 13.56 40.36C14.3333 39.4267 15.0533 38.52 15.72 37.64C16.4133 36.76 17 35.96 17.48 35.24H23.12C22.5067 36.0667 21.8133 36.9733 21.04 37.96C20.2667 38.9467 19.4267 39.9733 18.52 41.04C17.6133 42.08 16.6533 43.12 15.64 44.16C14.6267 45.2 13.5867 46.1867 12.52 47.12ZM21.52 60V41.2H25.92V51.88C26.7733 50.1733 27.72 48.4667 28.76 46.76C29.8 45.0267 31.0667 43.1733 32.56 41.2H36.52V60H32.08V48.48C31.4667 49.4133 30.88 50.32 30.32 51.2C29.7867 52.08 29.2533 52.9733 28.72 53.88C28.2133 54.7867 27.68 55.7467 27.12 56.76C26.5867 57.7467 26.0267 58.8267 25.44 60H21.52ZM49.04 56.24C49.7867 56.24 50.4133 56.08 50.92 55.76C51.4267 55.4133 51.8667 55.0133 52.24 54.56C52.2933 54.1867 52.3467 53.8267 52.4 53.48C52.4533 53.1333 52.5333 52.7333 52.64 52.28L54.36 45.16C54.0667 45.08 53.76 45.0267 53.44 45C53.12 44.9733 52.8133 44.96 52.52 44.96C51.5867 44.96 50.7467 45.1867 50 45.64C49.2533 46.0667 48.6133 46.64 48.08 47.36C47.5467 48.08 47.1333 48.9067 46.84 49.84C46.5733 50.7733 46.44 51.7333 46.44 52.72C46.44 53.4133 46.4933 53.9867 46.6 54.44C46.7333 54.8933 46.9067 55.2533 47.12 55.52C47.36 55.7867 47.64 55.9733 47.96 56.08C48.28 56.1867 48.64 56.24 49.04 56.24ZM47.24 60.44C45.48 60.4133 44.0933 59.7867 43.08 58.56C42.0667 57.3067 41.56 55.4933 41.56 53.12C41.56 51.3067 41.8667 49.64 42.48 48.12C43.0933 46.6 43.9333 45.3067 45 44.24C46.0667 43.1467 47.3067 42.3067 48.72 41.72C50.16 41.1067 51.68 40.8 53.28 40.8C54.3733 40.8 55.48 40.9067 56.6 41.12C57.72 41.3333 58.8533 41.6667 60 42.12L57.52 52.32C57.4133 52.8 57.3333 53.28 57.28 53.76C57.2267 54.2133 57.2 54.68 57.2 55.16C57.2 55.9333 57.2667 56.6933 57.4 57.44C57.56 58.16 57.76 58.88 58 59.6L53.68 60.32C53.6267 60.2133 53.56 60.08 53.48 59.92C53.4 59.76 53.32 59.5867 53.24 59.4C53.16 59.2133 53.0933 59.0533 53.04 58.92C52.9867 58.76 52.9467 58.64 52.92 58.56C52.3867 58.96 51.6667 59.3733 50.76 59.8C49.8533 60.2267 48.68 60.44 47.24 60.44ZM76.6 60H71.68V52.56H66.28V60H61.36V41.2H66.28V48.48H71.68V41.2H76.6V60ZM90.32 57C91.2267 55.56 92.04 54.08 92.76 52.56C93.5067 51.0133 94.16 49.5467 94.72 48.16C95.28 46.7467 95.7467 45.4533 96.12 44.28C96.52 43.1067 96.8 42.16 96.96 41.44H100.44C100.173 42.3467 99.8 43.48 99.32 44.84C98.84 46.1733 98.2533 47.6267 97.56 49.2C96.8933 50.7467 96.1333 52.3467 95.28 54C94.4267 55.6267 93.5067 57.1733 92.52 58.64C91.7733 59.76 91.0133 60.8133 90.24 61.8C89.4933 62.7867 88.68 63.64 87.8 64.36C86.9467 65.1067 85.9867 65.68 84.92 66.08C83.88 66.5067 82.7067 66.72 81.4 66.72C80.7333 66.72 80.12 66.64 79.56 66.48C79 66.32 78.5733 66.1333 78.28 65.92L79.44 63.2C79.6533 63.4133 79.96 63.5733 80.36 63.68C80.7867 63.8133 81.2533 63.88 81.76 63.88C83.1467 63.88 84.3067 63.6 85.24 63.04C86.1733 62.48 87.0933 61.5467 88 60.24C87.12 57.3333 86.3467 54.2933 85.68 51.12C85.0133 47.9467 84.6133 44.72 84.48 41.44H87.84C87.8667 42.5067 87.9467 43.68 88.08 44.96C88.2133 46.24 88.3867 47.56 88.6 48.92C88.84 50.28 89.1067 51.6533 89.4 53.04C89.6933 54.4267 90 55.7467 90.32 57ZM121.52 60V41.2H125.92V51.88C126.773 50.1733 127.72 48.4667 128.76 46.76C129.8 45.0267 131.067 43.1733 132.56 41.2H136.52V60H132.08V48.48C131.467 49.4133 130.88 50.32 130.32 51.2C129.787 52.08 129.253 52.9733 128.72 53.88C128.213 54.7867 127.68 55.7467 127.12 56.76C126.587 57.7467 126.027 58.8267 125.44 60H121.52ZM160.6 60L166.56 35.24H169.56L164.8 54.64C166.053 52.6933 167.187 50.96 168.2 49.44C169.24 47.92 170.28 46.44 171.32 45C172.36 43.56 173.467 42.08 174.64 40.56C175.84 39.0133 177.227 37.24 178.8 35.24H182.16L176.2 60H173.2L178.08 39.88C177.013 41.2933 175.947 42.72 174.88 44.16C173.813 45.6 172.707 47.1333 171.56 48.76C170.44 50.36 169.253 52.08 168 53.92C166.747 55.76 165.4 57.7867 163.96 60H160.6ZM179.48 56.28C180.04 56.1733 180.52 56.04 180.92 55.88C181.32 55.6933 181.653 55.4933 181.92 55.28C182.213 55.04 182.467 54.8 182.68 54.56C182.893 54.2933 183.107 54.0133 183.32 53.72C183.773 53.08 184.187 52.3467 184.56 51.52C184.933 50.6667 185.267 49.7733 185.56 48.84C185.88 47.9067 186.16 46.9733 186.4 46.04C186.64 45.08 186.867 44.1867 187.08 43.36L187.6 41.2H200.4L195.84 60H191.04L194.52 45.28H191.04C190.56 47.0133 190.053 48.76 189.52 50.52C188.987 52.28 188.293 53.88 187.44 55.32C186.613 56.76 185.587 57.96 184.36 58.92C183.133 59.88 181.587 60.4 179.72 60.48L179.48 56.28ZM209.24 56.24C210.04 56.24 210.747 56 211.36 55.52C211.973 55.04 212.493 54.44 212.92 53.72C213.373 53 213.707 52.2267 213.92 51.4C214.16 50.5467 214.28 49.7467 214.28 49C214.28 47.7467 214.093 46.76 213.72 46.04C213.373 45.32 212.64 44.96 211.52 44.96C210.747 44.96 210.04 45.2 209.4 45.68C208.787 46.16 208.267 46.76 207.84 47.48C207.413 48.2 207.08 48.9867 206.84 49.84C206.627 50.6667 206.52 51.4533 206.52 52.2C206.52 53.4533 206.693 54.44 207.04 55.16C207.413 55.88 208.147 56.24 209.24 56.24ZM208.24 60.52C206 60.52 204.333 59.88 203.24 58.6C202.147 57.32 201.6 55.6133 201.6 53.48C201.6 51.88 201.84 50.32 202.32 48.8C202.8 47.28 203.507 45.92 204.44 44.72C205.373 43.52 206.533 42.56 207.92 41.84C209.307 41.0933 210.907 40.72 212.72 40.72C214.667 40.72 216.227 41.32 217.4 42.52C218.6 43.6933 219.2 45.4533 219.2 47.8C219.2 49.3733 218.973 50.92 218.52 52.44C218.067 53.96 217.373 55.32 216.44 56.52C215.533 57.72 214.387 58.6933 213 59.44C211.64 60.16 210.053 60.52 208.24 60.52ZM236.6 60H231.68V52.56H226.28V60H221.36V41.2H226.28V48.48H231.68V41.2H236.6V60ZM257.88 41.2C257.373 42.96 256.88 44.6933 256.4 46.4C255.947 48.08 255.467 49.7333 254.96 51.36C254.453 52.96 253.907 54.5333 253.32 56.08C252.76 57.6267 252.147 59.1333 251.48 60.6C250.973 61.6667 250.467 62.5867 249.96 63.36C249.48 64.1333 248.933 64.76 248.32 65.24C247.733 65.7467 247.067 66.12 246.32 66.36C245.6 66.6 244.747 66.72 243.76 66.72C242.933 66.72 242.173 66.6533 241.48 66.52C240.813 66.3867 240.253 66.2133 239.8 66L240.72 61.88C241.253 62.12 241.72 62.28 242.12 62.36C242.547 62.4667 243 62.52 243.48 62.52C244.44 62.52 245.213 62.2 245.8 61.56C246.387 60.92 246.853 60.16 247.2 59.28C246.027 56.9333 244.853 54.2533 243.68 51.24C242.507 48.2 241.44 44.8533 240.48 41.2H245.6C245.84 42.1867 246.107 43.24 246.4 44.36C246.72 45.48 247.053 46.6 247.4 47.72C247.747 48.84 248.107 49.9467 248.48 51.04C248.88 52.1067 249.28 53.1067 249.68 54.04C249.947 53.1067 250.227 52.1067 250.52 51.04C250.813 49.9467 251.093 48.8533 251.36 47.76C251.627 46.64 251.88 45.52 252.12 44.4C252.387 43.28 252.627 42.2133 252.84 41.2H257.88ZM275.2 41.92C274.96 42.88 274.733 43.7467 274.52 44.52C274.307 45.2933 274.08 46.0267 273.84 46.72C273.6 47.4133 273.347 48.1067 273.08 48.8C272.813 49.4667 272.52 50.2 272.2 51H268.12C268.2 50.0933 268.28 49.2533 268.36 48.48C268.467 47.68 268.573 46.9067 268.68 46.16C268.787 45.4133 268.907 44.68 269.04 43.96C269.2 43.2133 269.387 42.44 269.6 41.64L271.12 35.24H276.8L275.2 41.92ZM269.2 53.8C270.053 53.8 270.76 54.0533 271.32 54.56C271.88 55.04 272.16 55.7733 272.16 56.76C272.16 57.2933 272.053 57.7867 271.84 58.24C271.653 58.6933 271.387 59.0933 271.04 59.44C270.72 59.76 270.347 60.0133 269.92 60.2C269.493 60.3867 269.04 60.48 268.56 60.48C267.733 60.48 267.027 60.2267 266.44 59.72C265.88 59.2133 265.6 58.4667 265.6 57.48C265.6 56.92 265.693 56.4133 265.88 55.96C266.093 55.5067 266.36 55.12 266.68 54.8C267.027 54.48 267.413 54.24 267.84 54.08C268.293 53.8933 268.747 53.8 269.2 53.8Z" fill="#976EEC"/>
</svg>
