<svg width="1086" height="63" viewBox="0 0 1086 63" fill="none" xmlns="http://www.w3.org/2000/svg">
<path d="M24.988 49L35.284 6.178H17.422L7.126 49H0.808L12.352 0.717999H43.006L31.384 49H24.988ZM56.968 41.668C58.528 41.668 59.906 41.2 61.102 40.264C62.298 39.328 63.312 38.158 64.144 36.754C65.028 35.35 65.678 33.842 66.094 32.23C66.562 30.566 66.796 29.006 66.796 27.55C66.796 25.106 66.432 23.182 65.704 21.778C65.028 20.374 63.598 19.672 61.414 19.672C59.906 19.672 58.528 20.14 57.28 21.076C56.084 22.012 55.07 23.182 54.238 24.586C53.406 25.99 52.756 27.524 52.288 29.188C51.872 30.8 51.664 32.334 51.664 33.79C51.664 36.234 52.002 38.158 52.678 39.562C53.406 40.966 54.836 41.668 56.968 41.668ZM55.018 50.014C50.65 50.014 47.4 48.766 45.268 46.27C43.136 43.774 42.07 40.446 42.07 36.286C42.07 33.166 42.538 30.124 43.474 27.16C44.41 24.196 45.788 21.544 47.608 19.204C49.428 16.864 51.69 14.992 54.394 13.588C57.098 12.132 60.218 11.404 63.754 11.404C67.55 11.404 70.592 12.574 72.88 14.914C75.22 17.202 76.39 20.634 76.39 25.21C76.39 28.278 75.948 31.294 75.064 34.258C74.18 37.222 72.828 39.874 71.008 42.214C69.24 44.554 67.004 46.452 64.3 47.908C61.648 49.312 58.554 50.014 55.018 50.014ZM88.636 12.34C89 13.432 89.442 14.758 89.962 16.318C90.534 17.878 91.132 19.568 91.756 21.388C92.38 23.156 93.004 24.976 93.628 26.848C94.304 28.72 94.928 30.54 95.5 32.308C96.072 30.592 96.67 28.798 97.294 26.926C97.97 25.054 98.62 23.234 99.244 21.466C99.868 19.646 100.44 17.956 100.96 16.396C101.532 14.784 102.026 13.432 102.442 12.34H110.398C110.762 15.564 111.1 18.71 111.412 21.778C111.776 24.794 112.062 27.81 112.27 30.826C112.53 33.79 112.738 36.78 112.894 39.796C113.05 42.76 113.18 45.828 113.284 49H104.47L104.938 23.104L99.088 41.434H92.068L86.296 23.104L86.686 49H77.872C78.028 45.984 78.184 42.864 78.34 39.64C78.548 36.416 78.756 33.218 78.964 30.046C79.172 26.822 79.406 23.702 79.666 20.686C79.978 17.67 80.316 14.888 80.68 12.34H88.636ZM151.816 30.592C151.816 33.504 151.4 36.156 150.568 38.548C149.736 40.888 148.566 42.916 147.058 44.632C145.55 46.348 143.73 47.674 141.598 48.61C139.518 49.546 137.178 50.014 134.578 50.014C131.978 50.014 129.612 49.546 127.48 48.61C125.4 47.674 123.58 46.348 122.02 44.632C120.512 42.916 119.342 40.888 118.51 38.548C117.678 36.156 117.262 33.504 117.262 30.592C117.262 27.732 117.678 25.132 118.51 22.792C119.394 20.4 120.59 18.372 122.098 16.708C123.658 14.992 125.504 13.692 127.636 12.808C129.768 11.872 132.082 11.404 134.578 11.404C137.126 11.404 139.44 11.872 141.52 12.808C143.652 13.692 145.472 14.992 146.98 16.708C148.54 18.372 149.736 20.4 150.568 22.792C151.4 25.132 151.816 27.732 151.816 30.592ZM127.012 30.67C127.012 33.946 127.584 36.598 128.728 38.626C129.924 40.654 131.822 41.668 134.422 41.668C136.918 41.668 138.79 40.654 140.038 38.626C141.338 36.598 141.988 33.946 141.988 30.67C141.988 27.394 141.39 24.768 140.194 22.792C139.05 20.764 137.178 19.75 134.578 19.75C132.082 19.75 130.184 20.764 128.884 22.792C127.636 24.768 127.012 27.394 127.012 30.67ZM188.866 20.296H170.614V49H160.942V12.34H188.866V20.296ZM227.164 12.808V49H220.846V21.388C219.442 23.156 217.96 25.236 216.4 27.628C214.892 30.02 213.358 32.49 211.798 35.038C210.29 37.534 208.834 40.004 207.43 42.448C206.026 44.892 204.778 47.076 203.686 49H197.914V12.808H204.154V38.86C205.35 36.832 206.65 34.648 208.054 32.308C209.458 29.916 210.914 27.55 212.422 25.21C213.93 22.818 215.438 20.556 216.946 18.424C218.454 16.24 219.936 14.368 221.392 12.808H227.164ZM309.61 30.826C309.61 34.05 309.012 36.858 307.816 39.25C306.62 41.59 304.956 43.54 302.824 45.1C300.744 46.608 298.248 47.752 295.336 48.532C292.476 49.26 289.382 49.624 286.054 49.624C284.182 49.624 282.18 49.52 280.048 49.312C277.968 49.104 275.81 48.714 273.574 48.142L284.962 0.717999H312.34L310.468 8.674H292.606L290.344 17.878H294.322C299.522 17.878 303.37 19.074 305.866 21.466C308.362 23.806 309.61 26.926 309.61 30.826ZM299.938 31.84C299.938 30.072 299.366 28.668 298.222 27.628C297.13 26.588 295.076 26.068 292.06 26.068H288.316L284.806 41.122C285.742 41.278 286.704 41.356 287.692 41.356C291.592 41.356 294.608 40.55 296.74 38.938C298.872 37.274 299.938 34.908 299.938 31.84ZM314.914 49V12.34H323.494V33.166C325.158 29.838 327.004 26.51 329.032 23.182C331.06 19.802 333.53 16.188 336.442 12.34H344.164V49H335.506V26.536C334.31 28.356 333.166 30.124 332.074 31.84C331.034 33.556 329.994 35.298 328.954 37.066C327.966 38.834 326.926 40.706 325.834 42.682C324.794 44.606 323.702 46.712 322.558 49H314.914ZM367.33 18.19C367.33 19.75 367.278 21.414 367.174 23.182C367.122 24.898 366.992 26.64 366.784 28.408C366.628 30.124 366.394 31.84 366.082 33.556C365.77 35.22 365.354 36.78 364.834 38.236C363.794 41.2 362.208 43.748 360.076 45.88C357.944 48.012 354.902 49.286 350.95 49.702L350.014 44.242C352.302 43.826 354.096 42.994 355.396 41.746C356.748 40.446 357.814 38.886 358.594 37.066C359.27 35.506 359.764 33.738 360.076 31.762C360.44 29.786 360.7 27.706 360.856 25.522C361.012 23.338 361.09 21.154 361.09 18.97C361.09 16.786 361.09 14.732 361.09 12.808H382.462V49H375.988V18.19H367.33ZM406.72 20.296C406.616 22.532 406.486 24.794 406.33 27.082C406.226 29.318 405.992 31.502 405.628 33.634C405.316 35.766 404.822 37.768 404.146 39.64C403.47 41.512 402.534 43.176 401.338 44.632C400.194 46.036 398.738 47.18 396.97 48.064C395.254 48.948 393.148 49.468 390.652 49.624L389.326 41.668C391.146 41.252 392.498 40.602 393.382 39.718C394.266 38.834 394.994 37.846 395.566 36.754C396.19 35.506 396.658 34.076 396.97 32.464C397.334 30.8 397.594 29.058 397.75 27.238C397.958 25.418 398.062 23.598 398.062 21.778C398.114 19.906 398.14 18.164 398.14 16.552V12.34H422.164V49H412.57V20.296H406.72ZM431.914 49V12.34H440.494V33.166C442.158 29.838 444.004 26.51 446.032 23.182C448.06 19.802 450.53 16.188 453.442 12.34H461.164V49H452.506V26.536C451.31 28.356 450.166 30.124 449.074 31.84C448.034 33.556 446.994 35.298 445.954 37.066C444.966 38.834 443.926 40.706 442.834 42.682C441.794 44.606 440.702 46.712 439.558 49H431.914ZM475.828 54.694C476.764 54.486 477.7 54.304 478.636 54.148C479.624 53.992 480.534 53.758 481.366 53.446C482.25 53.134 483.03 52.692 483.706 52.12C484.382 51.548 484.928 50.768 485.344 49.78C483.368 49.572 481.834 48.792 480.742 47.44C479.65 46.088 479.104 44.58 479.104 42.916C479.104 40.888 479.754 39.224 481.054 37.924C482.406 36.624 484.096 35.974 486.124 35.974C488.308 35.974 489.998 36.702 491.194 38.158C492.442 39.614 493.066 41.59 493.066 44.086C493.066 45.906 492.78 47.726 492.208 49.546C491.636 51.366 490.7 53.056 489.4 54.616C488.152 56.176 486.514 57.528 484.486 58.672C482.458 59.816 479.988 60.57 477.076 60.934L475.828 54.694ZM570.364 23.884C571.612 25.444 572.808 27.212 573.952 29.188C575.096 31.112 576.136 33.192 577.072 35.428C578.06 37.612 578.918 39.874 579.646 42.214C580.426 44.502 581.05 46.764 581.518 49H571.456C571.092 47.18 570.546 45.23 569.818 43.15C569.142 41.018 568.336 38.938 567.4 36.91C566.516 34.882 565.554 32.984 564.514 31.216C563.474 29.396 562.434 27.862 561.394 26.614L556.012 49H546.418L557.962 0.717999H567.634L562.798 20.764C564.41 19.308 566.022 17.722 567.634 16.006C569.298 14.238 570.884 12.47 572.392 10.702C573.9 8.882 575.304 7.114 576.604 5.398C577.956 3.682 579.1 2.122 580.036 0.717999H591.034C589.838 2.33 588.486 4.098 586.978 6.022C585.47 7.946 583.832 9.948 582.064 12.028C580.296 14.056 578.424 16.084 576.448 18.112C574.472 20.14 572.444 22.064 570.364 23.884ZM587.914 49V12.34H596.494V33.166C598.158 29.838 600.004 26.51 602.032 23.182C604.06 19.802 606.53 16.188 609.442 12.34H617.164V49H608.506V26.536C607.31 28.356 606.166 30.124 605.074 31.84C604.034 33.556 602.994 35.298 601.954 37.066C600.966 38.834 599.926 40.706 598.834 42.682C597.794 44.606 596.702 46.712 595.558 49H587.914ZM641.578 41.668C643.034 41.668 644.256 41.356 645.244 40.732C646.232 40.056 647.09 39.276 647.818 38.392C647.922 37.664 648.026 36.962 648.13 36.286C648.234 35.61 648.39 34.83 648.598 33.946L651.952 20.062C651.38 19.906 650.782 19.802 650.158 19.75C649.534 19.698 648.936 19.672 648.364 19.672C646.544 19.672 644.906 20.114 643.45 20.998C641.994 21.83 640.746 22.948 639.706 24.352C638.666 25.756 637.86 27.368 637.288 29.188C636.768 31.008 636.508 32.88 636.508 34.804C636.508 36.156 636.612 37.274 636.82 38.158C637.08 39.042 637.418 39.744 637.834 40.264C638.302 40.784 638.848 41.148 639.472 41.356C640.096 41.564 640.798 41.668 641.578 41.668ZM638.068 49.858C634.636 49.806 631.932 48.584 629.956 46.192C627.98 43.748 626.992 40.212 626.992 35.584C626.992 32.048 627.59 28.798 628.786 25.834C629.982 22.87 631.62 20.348 633.7 18.268C635.78 16.136 638.198 14.498 640.954 13.354C643.762 12.158 646.726 11.56 649.846 11.56C651.978 11.56 654.136 11.768 656.32 12.184C658.504 12.6 660.714 13.25 662.95 14.134L658.114 34.024C657.906 34.96 657.75 35.896 657.646 36.832C657.542 37.716 657.49 38.626 657.49 39.562C657.49 41.07 657.62 42.552 657.88 44.008C658.192 45.412 658.582 46.816 659.05 48.22L650.626 49.624C650.522 49.416 650.392 49.156 650.236 48.844C650.08 48.532 649.924 48.194 649.768 47.83C649.612 47.466 649.482 47.154 649.378 46.894C649.274 46.582 649.196 46.348 649.144 46.192C648.104 46.972 646.7 47.778 644.932 48.61C643.164 49.442 640.876 49.858 638.068 49.858ZM695.32 49H685.726V34.492H675.196V49H665.602V12.34H675.196V26.536H685.726V12.34H695.32V49ZM722.074 43.15C723.842 40.342 725.428 37.456 726.832 34.492C728.288 31.476 729.562 28.616 730.654 25.912C731.746 23.156 732.656 20.634 733.384 18.346C734.164 16.058 734.71 14.212 735.022 12.808H741.808C741.288 14.576 740.56 16.786 739.624 19.438C738.688 22.038 737.544 24.872 736.192 27.94C734.892 30.956 733.41 34.076 731.746 37.3C730.082 40.472 728.288 43.488 726.364 46.348C724.908 48.532 723.426 50.586 721.918 52.51C720.462 54.434 718.876 56.098 717.16 57.502C715.496 58.958 713.624 60.076 711.544 60.856C709.516 61.688 707.228 62.104 704.68 62.104C703.38 62.104 702.184 61.948 701.092 61.636C700 61.324 699.168 60.96 698.596 60.544L700.858 55.24C701.274 55.656 701.872 55.968 702.652 56.176C703.484 56.436 704.394 56.566 705.382 56.566C708.086 56.566 710.348 56.02 712.168 54.928C713.988 53.836 715.782 52.016 717.55 49.468C715.834 43.8 714.326 37.872 713.026 31.684C711.726 25.496 710.946 19.204 710.686 12.808H717.238C717.29 14.888 717.446 17.176 717.706 19.672C717.966 22.168 718.304 24.742 718.72 27.394C719.188 30.046 719.708 32.724 720.28 35.428C720.852 38.132 721.45 40.706 722.074 43.15ZM782.914 49V12.34H791.494V33.166C793.158 29.838 795.004 26.51 797.032 23.182C799.06 19.802 801.53 16.188 804.442 12.34H812.164V49H803.506V26.536C802.31 28.356 801.166 30.124 800.074 31.84C799.034 33.556 797.994 35.298 796.954 37.066C795.966 38.834 794.926 40.706 793.834 42.682C792.794 44.606 791.702 46.712 790.558 49H782.914ZM859.12 49L870.742 0.717999H876.592L867.31 38.548C869.754 34.752 871.964 31.372 873.94 28.408C875.968 25.444 877.996 22.558 880.024 19.75C882.052 16.942 884.21 14.056 886.498 11.092C888.838 8.076 891.542 4.618 894.61 0.717999H901.162L889.54 49H883.69L893.206 9.766C891.126 12.522 889.046 15.304 886.966 18.112C884.886 20.92 882.728 23.91 880.492 27.082C878.308 30.202 875.994 33.556 873.55 37.144C871.106 40.732 868.48 44.684 865.672 49H859.12ZM895.936 41.746C897.028 41.538 897.964 41.278 898.744 40.966C899.524 40.602 900.174 40.212 900.694 39.796C901.266 39.328 901.76 38.86 902.176 38.392C902.592 37.872 903.008 37.326 903.424 36.754C904.308 35.506 905.114 34.076 905.842 32.464C906.57 30.8 907.22 29.058 907.792 27.238C908.416 25.418 908.962 23.598 909.43 21.778C909.898 19.906 910.34 18.164 910.756 16.552L911.77 12.34H936.73L927.838 49H918.478L925.264 20.296H918.478C917.542 23.676 916.554 27.082 915.514 30.514C914.474 33.946 913.122 37.066 911.458 39.874C909.846 42.682 907.844 45.022 905.452 46.894C903.06 48.766 900.044 49.78 896.404 49.936L895.936 41.746ZM953.968 41.668C955.528 41.668 956.906 41.2 958.102 40.264C959.298 39.328 960.312 38.158 961.144 36.754C962.028 35.35 962.678 33.842 963.094 32.23C963.562 30.566 963.796 29.006 963.796 27.55C963.796 25.106 963.432 23.182 962.704 21.778C962.028 20.374 960.598 19.672 958.414 19.672C956.906 19.672 955.528 20.14 954.28 21.076C953.084 22.012 952.07 23.182 951.238 24.586C950.406 25.99 949.756 27.524 949.288 29.188C948.872 30.8 948.664 32.334 948.664 33.79C948.664 36.234 949.002 38.158 949.678 39.562C950.406 40.966 951.836 41.668 953.968 41.668ZM952.018 50.014C947.65 50.014 944.4 48.766 942.268 46.27C940.136 43.774 939.07 40.446 939.07 36.286C939.07 33.166 939.538 30.124 940.474 27.16C941.41 24.196 942.788 21.544 944.608 19.204C946.428 16.864 948.69 14.992 951.394 13.588C954.098 12.132 957.218 11.404 960.754 11.404C964.55 11.404 967.592 12.574 969.88 14.914C972.22 17.202 973.39 20.634 973.39 25.21C973.39 28.278 972.948 31.294 972.064 34.258C971.18 37.222 969.828 39.874 968.008 42.214C966.24 44.554 964.004 46.452 961.3 47.908C958.648 49.312 955.554 50.014 952.018 50.014ZM1007.32 49H997.726V34.492H987.196V49H977.602V12.34H987.196V26.536H997.726V12.34H1007.32V49ZM1031.58 42.136C1032.62 42.136 1033.63 42.136 1034.62 42.136C1035.61 42.084 1036.47 42.006 1037.19 41.902V33.478C1036.57 33.374 1035.82 33.296 1034.93 33.244C1034.05 33.14 1033.24 33.088 1032.51 33.088C1031.53 33.088 1030.56 33.166 1029.63 33.322C1028.69 33.426 1027.86 33.634 1027.13 33.946C1026.46 34.258 1025.91 34.7 1025.49 35.272C1025.08 35.844 1024.87 36.598 1024.87 37.534C1024.87 39.198 1025.49 40.394 1026.74 41.122C1027.99 41.798 1029.6 42.136 1031.58 42.136ZM1030.72 11.404C1033.74 11.404 1036.23 11.768 1038.21 12.496C1040.24 13.172 1041.85 14.16 1043.04 15.46C1044.24 16.708 1045.1 18.268 1045.62 20.14C1046.14 21.96 1046.4 24.014 1046.4 26.302V48.142C1044.99 48.454 1042.91 48.818 1040.16 49.234C1037.4 49.65 1034.31 49.858 1030.88 49.858C1028.54 49.858 1026.4 49.65 1024.48 49.234C1022.61 48.818 1021 48.142 1019.64 47.206C1018.29 46.218 1017.25 44.97 1016.52 43.462C1015.8 41.902 1015.43 40.004 1015.43 37.768C1015.43 35.636 1015.85 33.842 1016.68 32.386C1017.51 30.93 1018.63 29.76 1020.03 28.876C1021.44 27.992 1023.05 27.368 1024.87 27.004C1026.69 26.588 1028.59 26.38 1030.56 26.38C1033.06 26.38 1035.27 26.588 1037.19 27.004V25.834C1037.19 24.014 1036.62 22.506 1035.48 21.31C1034.33 20.062 1032.36 19.438 1029.55 19.438C1027.73 19.438 1025.96 19.568 1024.25 19.828C1022.58 20.088 1021.23 20.4 1020.19 20.764L1018.86 13.042C1020.06 12.626 1021.75 12.262 1023.93 11.95C1026.12 11.586 1028.38 11.404 1030.72 11.404ZM1082.59 13.744C1082.12 15.616 1081.68 17.306 1081.26 18.814C1080.85 20.322 1080.41 21.752 1079.94 23.104C1079.47 24.456 1078.98 25.808 1078.46 27.16C1077.94 28.46 1077.36 29.89 1076.74 31.45H1068.78C1068.94 29.682 1069.1 28.044 1069.25 26.536C1069.46 24.976 1069.67 23.468 1069.88 22.012C1070.08 20.556 1070.32 19.126 1070.58 17.722C1070.89 16.266 1071.25 14.758 1071.67 13.198L1074.63 0.717999H1085.71L1082.59 13.744ZM1070.89 36.91C1072.55 36.91 1073.93 37.404 1075.02 38.392C1076.12 39.328 1076.66 40.758 1076.66 42.682C1076.66 43.722 1076.45 44.684 1076.04 45.568C1075.67 46.452 1075.15 47.232 1074.48 47.908C1073.85 48.532 1073.13 49.026 1072.29 49.39C1071.46 49.754 1070.58 49.936 1069.64 49.936C1068.03 49.936 1066.65 49.442 1065.51 48.454C1064.42 47.466 1063.87 46.01 1063.87 44.086C1063.87 42.994 1064.05 42.006 1064.42 41.122C1064.83 40.238 1065.35 39.484 1065.98 38.86C1066.65 38.236 1067.41 37.768 1068.24 37.456C1069.12 37.092 1070.01 36.91 1070.89 36.91Z" fill="#976EEC"/>
</svg>
