<svg width="1069" height="65" viewBox="0 0 1069 65" fill="none" xmlns="http://www.w3.org/2000/svg">
<path d="M15.32 52.04C10.6267 52.04 6.92 50.4933 4.2 47.4C1.48 44.3067 0.12 40.12 0.12 34.84C0.12 30.6267 0.733334 26.4667 1.96 22.36C3.18667 18.2 4.94667 14.4933 7.24 11.24C9.58667 7.98666 12.4133 5.37333 15.72 3.4C19.0267 1.37333 22.76 0.359999 26.92 0.359999C30.12 0.359999 32.68 0.786665 34.6 1.64C36.5733 2.49333 38.0133 3.29333 38.92 4.04L35.8 9.32C34.8933 8.52 33.56 7.8 31.8 7.16C30.0933 6.52 28.3067 6.2 26.44 6.2C23.3467 6.2 20.5733 7 18.12 8.6C15.72 10.2 13.6667 12.3067 11.96 14.92C10.3067 17.5333 9.02667 20.4933 8.12 23.8C7.21333 27.0533 6.76 30.3867 6.76 33.8C6.76 37.64 7.61333 40.68 9.32 42.92C11.0267 45.1067 13.5067 46.2 16.76 46.2C19.32 46.2 21.5867 45.88 23.56 45.24C25.5333 44.5467 27 43.9067 27.96 43.32L28.68 48.92C28.36 49.1867 27.7733 49.5067 26.92 49.88C26.12 50.2 25.1333 50.52 23.96 50.84C22.84 51.16 21.5333 51.4267 20.04 51.64C18.5467 51.9067 16.9733 52.04 15.32 52.04ZM68.04 13.4V51H58.12V21.56H47.88V51H38.04V13.4H68.04ZM93.08 43.96C94.1467 43.96 95.1867 43.96 96.2 43.96C97.2133 43.9067 98.0933 43.8267 98.84 43.72V35.08C98.2 34.9733 97.4267 34.8933 96.52 34.84C95.6133 34.7333 94.7867 34.68 94.04 34.68C93.0267 34.68 92.04 34.76 91.08 34.92C90.12 35.0267 89.2667 35.24 88.52 35.56C87.8267 35.88 87.2667 36.3333 86.84 36.92C86.4133 37.5067 86.2 38.28 86.2 39.24C86.2 40.9467 86.84 42.1733 88.12 42.92C89.4 43.6133 91.0533 43.96 93.08 43.96ZM92.2 12.44C95.2933 12.44 97.8533 12.8133 99.88 13.56C101.96 14.2533 103.613 15.2667 104.84 16.6C106.067 17.88 106.947 19.48 107.48 21.4C108.013 23.2667 108.28 25.3733 108.28 27.72V50.12C106.84 50.44 104.707 50.8133 101.88 51.24C99.0533 51.6667 95.88 51.88 92.36 51.88C89.96 51.88 87.7733 51.6667 85.8 51.24C83.88 50.8133 82.2267 50.12 80.84 49.16C79.4533 48.1467 78.3867 46.8667 77.64 45.32C76.8933 43.72 76.52 41.7733 76.52 39.48C76.52 37.2933 76.9467 35.4533 77.8 33.96C78.6533 32.4667 79.8 31.2667 81.24 30.36C82.68 29.4533 84.3333 28.8133 86.2 28.44C88.0667 28.0133 90.0133 27.8 92.04 27.8C94.6 27.8 96.8667 28.0133 98.84 28.44V27.24C98.84 25.3733 98.2533 23.8267 97.08 22.6C95.9067 21.32 93.88 20.68 91 20.68C89.1333 20.68 87.32 20.8133 85.56 21.08C83.8533 21.3467 82.4667 21.6667 81.4 22.04L80.04 14.12C81.2667 13.6933 83 13.32 85.24 13C87.48 12.6267 89.8 12.44 92.2 12.44ZM116.92 32.52C116.92 29.16 117.453 26.2533 118.52 23.8C119.587 21.3467 121.053 19.32 122.92 17.72C124.787 16.12 126.947 14.9467 129.4 14.2C131.907 13.4 134.573 13 137.4 13C139.213 13 141 13.1333 142.76 13.4C144.573 13.6133 146.493 14.04 148.52 14.68L147 20.36C145.24 19.72 143.613 19.32 142.12 19.16C140.68 18.9467 139.213 18.84 137.72 18.84C135.8 18.84 133.987 19.1067 132.28 19.64C130.573 20.12 129.08 20.92 127.8 22.04C126.573 23.1067 125.587 24.52 124.84 26.28C124.093 27.9867 123.72 30.0667 123.72 32.52C123.72 34.8667 124.067 36.8933 124.76 38.6C125.453 40.2533 126.413 41.64 127.64 42.76C128.92 43.8267 130.44 44.6267 132.2 45.16C133.96 45.6933 135.907 45.96 138.04 45.96C139.747 45.96 141.373 45.88 142.92 45.72C144.52 45.5067 146.253 45.08 148.12 44.44L149.08 49.96C147.213 50.6533 145.32 51.1333 143.4 51.4C141.48 51.72 139.4 51.88 137.16 51.88C134.173 51.88 131.427 51.48 128.92 50.68C126.467 49.8267 124.333 48.6 122.52 47C120.76 45.4 119.373 43.4 118.36 41C117.4 38.5467 116.92 35.72 116.92 32.52ZM158.04 51V13.4H166.84V34.76C168.547 31.3467 170.44 27.9333 172.52 24.52C174.6 21.0533 177.133 17.3467 180.12 13.4H188.04V51H179.16V27.96C177.933 29.8267 176.76 31.64 175.64 33.4C174.573 35.16 173.507 36.9467 172.44 38.76C171.427 40.5733 170.36 42.4933 169.24 44.52C168.173 46.4933 167.053 48.6533 165.88 51H158.04ZM272.6 32.36C272.6 35.6667 271.987 38.5467 270.76 41C269.533 43.4 267.827 45.4 265.64 47C263.507 48.5467 260.947 49.72 257.96 50.52C255.027 51.2667 251.853 51.64 248.44 51.64C246.52 51.64 244.467 51.5333 242.28 51.32C240.147 51.1067 237.933 50.7067 235.64 50.12L247.32 1.48H275.4L273.48 9.64H255.16L252.84 19.08H256.92C262.253 19.08 266.2 20.3067 268.76 22.76C271.32 25.16 272.6 28.36 272.6 32.36ZM262.68 33.4C262.68 31.5867 262.093 30.1467 260.92 29.08C259.8 28.0133 257.693 27.48 254.6 27.48H250.76L247.16 42.92C248.12 43.08 249.107 43.16 250.12 43.16C254.12 43.16 257.213 42.3333 259.4 40.68C261.587 38.9733 262.68 36.5467 262.68 33.4ZM278.04 51V13.4H286.84V34.76C288.547 31.3467 290.44 27.9333 292.52 24.52C294.6 21.0533 297.133 17.3467 300.12 13.4H308.04V51H299.16V27.96C297.933 29.8267 296.76 31.64 295.64 33.4C294.573 35.16 293.507 36.9467 292.44 38.76C291.427 40.5733 290.36 42.4933 289.24 44.52C288.173 46.4933 287.053 48.6533 285.88 51H278.04ZM331.8 19.4C331.8 21 331.747 22.7067 331.64 24.52C331.587 26.28 331.453 28.0667 331.24 29.88C331.08 31.64 330.84 33.4 330.52 35.16C330.2 36.8667 329.773 38.4667 329.24 39.96C328.173 43 326.547 45.6133 324.36 47.8C322.173 49.9867 319.053 51.2933 315 51.72L314.04 46.12C316.387 45.6933 318.227 44.84 319.56 43.56C320.947 42.2267 322.04 40.6267 322.84 38.76C323.533 37.16 324.04 35.3467 324.36 33.32C324.733 31.2933 325 29.16 325.16 26.92C325.32 24.68 325.4 22.44 325.4 20.2C325.4 17.96 325.4 15.8533 325.4 13.88H347.32V51H340.68V19.4H331.8ZM372.2 21.56C372.093 23.8533 371.96 26.1733 371.8 28.52C371.693 30.8133 371.453 33.0533 371.08 35.24C370.76 37.4267 370.253 39.48 369.56 41.4C368.867 43.32 367.907 45.0267 366.68 46.52C365.507 47.96 364.013 49.1333 362.2 50.04C360.44 50.9467 358.28 51.48 355.72 51.64L354.36 43.48C356.227 43.0533 357.613 42.3867 358.52 41.48C359.427 40.5733 360.173 39.56 360.76 38.44C361.4 37.16 361.88 35.6933 362.2 34.04C362.573 32.3333 362.84 30.5467 363 28.68C363.213 26.8133 363.32 24.9467 363.32 23.08C363.373 21.16 363.4 19.3733 363.4 17.72V13.4H388.04V51H378.2V21.56H372.2ZM398.04 51V13.4H406.84V34.76C408.547 31.3467 410.44 27.9333 412.52 24.52C414.6 21.0533 417.133 17.3467 420.12 13.4H428.04V51H419.16V27.96C417.933 29.8267 416.76 31.64 415.64 33.4C414.573 35.16 413.507 36.9467 412.44 38.76C411.427 40.5733 410.36 42.4933 409.24 44.52C408.173 46.4933 407.053 48.6533 405.88 51H398.04ZM443.08 56.84C444.04 56.6267 445 56.44 445.96 56.28C446.973 56.12 447.907 55.88 448.76 55.56C449.667 55.24 450.467 54.7867 451.16 54.2C451.853 53.6133 452.413 52.8133 452.84 51.8C450.813 51.5867 449.24 50.7867 448.12 49.4C447 48.0133 446.44 46.4667 446.44 44.76C446.44 42.68 447.107 40.9733 448.44 39.64C449.827 38.3067 451.56 37.64 453.64 37.64C455.88 37.64 457.613 38.3867 458.84 39.88C460.12 41.3733 460.76 43.4 460.76 45.96C460.76 47.8267 460.467 49.6933 459.88 51.56C459.293 53.4267 458.333 55.16 457 56.76C455.72 58.36 454.04 59.7467 451.96 60.92C449.88 62.0933 447.347 62.8667 444.36 63.24L443.08 56.84ZM540.04 25.24C541.32 26.84 542.547 28.6533 543.72 30.68C544.893 32.6533 545.96 34.7867 546.92 37.08C547.933 39.32 548.813 41.64 549.56 44.04C550.36 46.3867 551 48.7067 551.48 51H541.16C540.787 49.1333 540.227 47.1333 539.48 45C538.787 42.8133 537.96 40.68 537 38.6C536.093 36.52 535.107 34.5733 534.04 32.76C532.973 30.8933 531.907 29.32 530.84 28.04L525.32 51H515.48L527.32 1.48H537.24L532.28 22.04C533.933 20.5467 535.587 18.92 537.24 17.16C538.947 15.3467 540.573 13.5333 542.12 11.72C543.667 9.85333 545.107 8.04 546.44 6.28C547.827 4.52 549 2.92 549.96 1.48H561.24C560.013 3.13333 558.627 4.94667 557.08 6.92C555.533 8.89333 553.853 10.9467 552.04 13.08C550.227 15.16 548.307 17.24 546.28 19.32C544.253 21.4 542.173 23.3733 540.04 25.24ZM558.04 51V13.4H566.84V34.76C568.547 31.3467 570.44 27.9333 572.52 24.52C574.6 21.0533 577.133 17.3467 580.12 13.4H588.04V51H579.16V27.96C577.933 29.8267 576.76 31.64 575.64 33.4C574.573 35.16 573.507 36.9467 572.44 38.76C571.427 40.5733 570.36 42.4933 569.24 44.52C568.173 46.4933 567.053 48.6533 565.88 51H558.04ZM613.08 43.48C614.573 43.48 615.827 43.16 616.84 42.52C617.853 41.8267 618.733 41.0267 619.48 40.12C619.587 39.3733 619.693 38.6533 619.8 37.96C619.907 37.2667 620.067 36.4667 620.28 35.56L623.72 21.32C623.133 21.16 622.52 21.0533 621.88 21C621.24 20.9467 620.627 20.92 620.04 20.92C618.173 20.92 616.493 21.3733 615 22.28C613.507 23.1333 612.227 24.28 611.16 25.72C610.093 27.16 609.267 28.8133 608.68 30.68C608.147 32.5467 607.88 34.4667 607.88 36.44C607.88 37.8267 607.987 38.9733 608.2 39.88C608.467 40.7867 608.813 41.5067 609.24 42.04C609.72 42.5733 610.28 42.9467 610.92 43.16C611.56 43.3733 612.28 43.48 613.08 43.48ZM609.48 51.88C605.96 51.8267 603.187 50.5733 601.16 48.12C599.133 45.6133 598.12 41.9867 598.12 37.24C598.12 33.6133 598.733 30.28 599.96 27.24C601.187 24.2 602.867 21.6133 605 19.48C607.133 17.2933 609.613 15.6133 612.44 14.44C615.32 13.2133 618.36 12.6 621.56 12.6C623.747 12.6 625.96 12.8133 628.2 13.24C630.44 13.6667 632.707 14.3333 635 15.24L630.04 35.64C629.827 36.6 629.667 37.56 629.56 38.52C629.453 39.4267 629.4 40.36 629.4 41.32C629.4 42.8667 629.533 44.3867 629.8 45.88C630.12 47.32 630.52 48.76 631 50.2L622.36 51.64C622.253 51.4267 622.12 51.16 621.96 50.84C621.8 50.52 621.64 50.1733 621.48 49.8C621.32 49.4267 621.187 49.1067 621.08 48.84C620.973 48.52 620.893 48.28 620.84 48.12C619.773 48.92 618.333 49.7467 616.52 50.6C614.707 51.4533 612.36 51.88 609.48 51.88ZM668.2 51H658.36V36.12H647.56V51H637.72V13.4H647.56V27.96H658.36V13.4H668.2V51ZM695.64 45C697.453 42.12 699.08 39.16 700.52 36.12C702.013 33.0267 703.32 30.0933 704.44 27.32C705.56 24.4933 706.493 21.9067 707.24 19.56C708.04 17.2133 708.6 15.32 708.92 13.88H715.88C715.347 15.6933 714.6 17.96 713.64 20.68C712.68 23.3467 711.507 26.2533 710.12 29.4C708.787 32.4933 707.267 35.6933 705.56 39C703.853 42.2533 702.013 45.3467 700.04 48.28C698.547 50.52 697.027 52.6267 695.48 54.6C693.987 56.5733 692.36 58.28 690.6 59.72C688.893 61.2133 686.973 62.36 684.84 63.16C682.76 64.0133 680.413 64.44 677.8 64.44C676.467 64.44 675.24 64.28 674.12 63.96C673 63.64 672.147 63.2667 671.56 62.84L673.88 57.4C674.307 57.8267 674.92 58.1467 675.72 58.36C676.573 58.6267 677.507 58.76 678.52 58.76C681.293 58.76 683.613 58.2 685.48 57.08C687.347 55.96 689.187 54.0933 691 51.48C689.24 45.6667 687.693 39.5867 686.36 33.24C685.027 26.8933 684.227 20.44 683.96 13.88H690.68C690.733 16.0133 690.893 18.36 691.16 20.92C691.427 23.48 691.773 26.12 692.2 28.84C692.68 31.56 693.213 34.3067 693.8 37.08C694.387 39.8533 695 42.4933 695.64 45ZM758.04 51V13.4H766.84V34.76C768.547 31.3467 770.44 27.9333 772.52 24.52C774.6 21.0533 777.133 17.3467 780.12 13.4H788.04V51H779.16V27.96C777.933 29.8267 776.76 31.64 775.64 33.4C774.573 35.16 773.507 36.9467 772.44 38.76C771.427 40.5733 770.36 42.4933 769.24 44.52C768.173 46.4933 767.053 48.6533 765.88 51H758.04ZM836.2 51L848.12 1.48H854.12L844.6 40.28C847.107 36.3867 849.373 32.92 851.4 29.88C853.48 26.84 855.56 23.88 857.64 21C859.72 18.12 861.933 15.16 864.28 12.12C866.68 9.02666 869.453 5.48 872.6 1.48H879.32L867.4 51H861.4L871.16 10.76C869.027 13.5867 866.893 16.44 864.76 19.32C862.627 22.2 860.413 25.2667 858.12 28.52C855.88 31.72 853.507 35.16 851 38.84C848.493 42.52 845.8 46.5733 842.92 51H836.2ZM873.96 43.56C875.08 43.3467 876.04 43.08 876.84 42.76C877.64 42.3867 878.307 41.9867 878.84 41.56C879.427 41.08 879.933 40.6 880.36 40.12C880.787 39.5867 881.213 39.0267 881.64 38.44C882.547 37.16 883.373 35.6933 884.12 34.04C884.867 32.3333 885.533 30.5467 886.12 28.68C886.76 26.8133 887.32 24.9467 887.8 23.08C888.28 21.16 888.733 19.3733 889.16 17.72L890.2 13.4H915.8L906.68 51H897.08L904.04 21.56H897.08C896.12 25.0267 895.107 28.52 894.04 32.04C892.973 35.56 891.587 38.76 889.88 41.64C888.227 44.52 886.173 46.92 883.72 48.84C881.267 50.76 878.173 51.8 874.44 51.96L873.96 43.56ZM933.48 43.48C935.08 43.48 936.493 43 937.72 42.04C938.947 41.08 939.987 39.88 940.84 38.44C941.747 37 942.413 35.4533 942.84 33.8C943.32 32.0933 943.56 30.4933 943.56 29C943.56 26.4933 943.187 24.52 942.44 23.08C941.747 21.64 940.28 20.92 938.04 20.92C936.493 20.92 935.08 21.4 933.8 22.36C932.573 23.32 931.533 24.52 930.68 25.96C929.827 27.4 929.16 28.9733 928.68 30.68C928.253 32.3333 928.04 33.9067 928.04 35.4C928.04 37.9067 928.387 39.88 929.08 41.32C929.827 42.76 931.293 43.48 933.48 43.48ZM931.48 52.04C927 52.04 923.667 50.76 921.48 48.2C919.293 45.64 918.2 42.2267 918.2 37.96C918.2 34.76 918.68 31.64 919.64 28.6C920.6 25.56 922.013 22.84 923.88 20.44C925.747 18.04 928.067 16.12 930.84 14.68C933.613 13.1867 936.813 12.44 940.44 12.44C944.333 12.44 947.453 13.64 949.8 16.04C952.2 18.3867 953.4 21.9067 953.4 26.6C953.4 29.7467 952.947 32.84 952.04 35.88C951.133 38.92 949.747 41.64 947.88 44.04C946.067 46.44 943.773 48.3867 941 49.88C938.28 51.32 935.107 52.04 931.48 52.04ZM988.2 51H978.36V36.12H967.56V51H957.72V13.4H967.56V27.96H978.36V13.4H988.2V51ZM1013.08 43.96C1014.15 43.96 1015.19 43.96 1016.2 43.96C1017.21 43.9067 1018.09 43.8267 1018.84 43.72V35.08C1018.2 34.9733 1017.43 34.8933 1016.52 34.84C1015.61 34.7333 1014.79 34.68 1014.04 34.68C1013.03 34.68 1012.04 34.76 1011.08 34.92C1010.12 35.0267 1009.27 35.24 1008.52 35.56C1007.83 35.88 1007.27 36.3333 1006.84 36.92C1006.41 37.5067 1006.2 38.28 1006.2 39.24C1006.2 40.9467 1006.84 42.1733 1008.12 42.92C1009.4 43.6133 1011.05 43.96 1013.08 43.96ZM1012.2 12.44C1015.29 12.44 1017.85 12.8133 1019.88 13.56C1021.96 14.2533 1023.61 15.2667 1024.84 16.6C1026.07 17.88 1026.95 19.48 1027.48 21.4C1028.01 23.2667 1028.28 25.3733 1028.28 27.72V50.12C1026.84 50.44 1024.71 50.8133 1021.88 51.24C1019.05 51.6667 1015.88 51.88 1012.36 51.88C1009.96 51.88 1007.77 51.6667 1005.8 51.24C1003.88 50.8133 1002.23 50.12 1000.84 49.16C999.453 48.1467 998.387 46.8667 997.64 45.32C996.893 43.72 996.52 41.7733 996.52 39.48C996.52 37.2933 996.947 35.4533 997.8 33.96C998.653 32.4667 999.8 31.2667 1001.24 30.36C1002.68 29.4533 1004.33 28.8133 1006.2 28.44C1008.07 28.0133 1010.01 27.8 1012.04 27.8C1014.6 27.8 1016.87 28.0133 1018.84 28.44V27.24C1018.84 25.3733 1018.25 23.8267 1017.08 22.6C1015.91 21.32 1013.88 20.68 1011 20.68C1009.13 20.68 1007.32 20.8133 1005.56 21.08C1003.85 21.3467 1002.47 21.6667 1001.4 22.04L1000.04 14.12C1001.27 13.6933 1003 13.32 1005.24 13C1007.48 12.6267 1009.8 12.44 1012.2 12.44ZM1065.4 14.84C1064.92 16.76 1064.47 18.4933 1064.04 20.04C1063.61 21.5867 1063.16 23.0533 1062.68 24.44C1062.2 25.8267 1061.69 27.2133 1061.16 28.6C1060.63 29.9333 1060.04 31.4 1059.4 33H1051.24C1051.4 31.1867 1051.56 29.5067 1051.72 27.96C1051.93 26.36 1052.15 24.8133 1052.36 23.32C1052.57 21.8267 1052.81 20.36 1053.08 18.92C1053.4 17.4267 1053.77 15.88 1054.2 14.28L1057.24 1.48H1068.6L1065.4 14.84ZM1053.4 38.6C1055.11 38.6 1056.52 39.1067 1057.64 40.12C1058.76 41.08 1059.32 42.5467 1059.32 44.52C1059.32 45.5867 1059.11 46.5733 1058.68 47.48C1058.31 48.3867 1057.77 49.1867 1057.08 49.88C1056.44 50.52 1055.69 51.0267 1054.84 51.4C1053.99 51.7733 1053.08 51.96 1052.12 51.96C1050.47 51.96 1049.05 51.4533 1047.88 50.44C1046.76 49.4267 1046.2 47.9333 1046.2 45.96C1046.2 44.84 1046.39 43.8267 1046.76 42.92C1047.19 42.0133 1047.72 41.24 1048.36 40.6C1049.05 39.96 1049.83 39.48 1050.68 39.16C1051.59 38.7867 1052.49 38.6 1053.4 38.6Z" fill="#976EEC"/>
</svg>
